<mxfile host="app.diagrams.net" modified="2022-06-09T08:06:04.079Z" agent="5.0 (Macintosh; Intel Mac OS X 10_15_7) AppleWebKit/537.36 (KHTML, like Gecko) Chrome/102.0.0.0 Safari/537.36" etag="lVC6SKlFm3olRkXGn96c" version="19.0.1" type="github">
  <diagram id="nS2EK5IVfa8JMNXDdASN" name="Page-1">
    <mxGraphModel dx="1930" dy="802" grid="1" gridSize="10" guides="1" tooltips="1" connect="1" arrows="1" fold="1" page="1" pageScale="1" pageWidth="400" pageHeight="300" math="1" shadow="0">
      <root>
        <mxCell id="0" />
        <mxCell id="1" parent="0" />
        <mxCell id="MhH44BmzcimzEkGrFkP5-1" value="" style="shape=image;imageAspect=0;aspect=fixed;verticalLabelPosition=bottom;verticalAlign=top;image=data:image/png,iVBORw0KGgoAAAANSUhEUgAAAMgAAADICAYAAACtWK6eAAAAAXNSR0IArs4c6QAADc9JREFUeF7tnX2MXFUZh3/vnVpQRLqzJcqHSmTuFgkxtIUoiWjLhwEVv8BGE0JIRNq9C6jBSAwmFBKKRNQI7GxrQkw0mggB0aQqiBYxEQptiRGIuzNo0sQFafcuKBqB7rxm1raRtduZe+4999wz57d/n/N+POc8c+6dnZkr4B8JkMCiBIRsSIAEFidAQbg7SOAwBCgItwcJUBDuARIwI8ATxIwbZwVCgIIEstBs04wABTHjxlmBEKAggSw02zQjQEHMuHFWIAQoSCALzTbNCFAQM26cFQgBChLIQrNNMwIUxIwbZwVCgIIEstBs04wABTHjxlmBEKAggSw02zQjQEHMuHFWIAQoSCALzTbNCFAQM26cFQgBChLIQrNNMwIUxIwbZwVCgIIEstBs04wABTHjxlmBEKAggSw02zQjQEHMuHFWIAS8FmR4YvKEuX1RHNXQgHZODGTNcrUpUpvpAO0litaesUY7V7AAJnslyLLxv5wuMnd+BD1bgQ8AOCaANbLd4oOi8ohCn0jH4gdtJ/MtvjeCDDVb1wlwPYCjfYPsS70iaMrSI27e+7l3TPtSs+06Ky9I99SIZN83AZxjGwbjAwI8i0humtnQ+D55zPOo7t/wRPscBbZC9cjqVjmYlQlk80zSGB3M7vrvqrKC1McnN0KiG/pvhSMLJyD663R05LzC43oUsJKCUI7q7CARfH1mNP5qdSoqt5LKCTLUbF0qwA/KxcBshyWgnRvTsRUbQ6RURUF2CLA6xMWocs8icu7MaOM3Va7RRm2VEmSo2b5SoFtsNMqYOQmo/jwdG/lIzijeTa+YIC2eHlXeQoor0rH4riqXWHRtlRFkuDl5niL6VdENMl6RBOS+NGlcXGTEqseqjCD15tQ3APly1YGFXZ/uTZORY0NiUB1BxlvPQ/DWkOD72GtHsOrF0fhJH2s3qbkSgtTH22+H6G6TBjinXAIiuGxmNA7mbfhqCHLn1PmIhJ8kLXevG2VTkZtnRxtfM5rs4aRKCDI83r5KRe/wkF+AJeu9aTJySSiNV0IQfrTEn+2mwMOzSbzWn4rzVUpB8vELbjYFcbDkPEEcQDdMSUEMweWZRkHy0Ct3LgUpl/d8NgriALphSgpiCC7PNAqSh165cylIubx5gjjgnSeliSDLb/3T0fveVFsdRbIamMv5oxvR75csrf3hhc+/6295+uh3Lt/F6pcUx80TyCrI8PjU5Tr/1Wk9qViE+t00GVlfbMz/j0ZBbBMesPhZBKk3W2q7/TSJre5hq8H7hcN7kH5JuR/XryD15tQWQK60XrHId9LRxhdt5aEgtsgOaNx+BHnz7a1jly7BC6UhEL0kHR2510Y+CmKD6gDH7EeQZXe01kQ1bCsLgwKbZpO4+6ubhf9RkMKRDnbAfgSpT7S+BMW3yiOhW9Nk5KM28lEQG1QHOGY/ggxPtD+pqveVh8HeO1oUpLxVHIhM/QhyzO2tk2tLUN6jFSz+mAQFGYhtW14T/QjSrabebD0A4EMlVLb9yNpR50yvP/5fNnJREBtUBzhmv4Isb7ZXd6A7bKOIIGfsTRo7beWhILbIDmjcfgXptr+82fpYB+j+jtZyGzgEcs1M0rD6TVQKYmPlBjhmFkEOYNj/j+D3ATgLwFvy4OnmF+iOmkZbyniEHAXJs1oBzjURZCGmoWZrmwBr+sVXRM5+cy0cR0FMyQU6r4jNSkEybh5+FisjMIfDKYgD+DkF+TuAR6Gdx4xLz/okK+3cuGiuKFJ0OtlO5iLz94CgInVALhSgYcKLgphQyznHWBDFt1+dwy0vXxPvyVNC5o9lF/xAGRf5h8anviIit2blRkGyEitgvKEg29Mk7r4zkvvPxQb936Jd5R9qPrtB0JnIApCCZKFV0FgTQUTl6pmxxp1FlOBqgx6o3WX++kT7eaj2/aPhFKSIHZcxhokgULkwHWv8MmOqQw53uUG7BbnMX29OPQ7Imf1ypCD9kipwnIkgnTmsffHq+OEiynC5QV0L4uItVxc5TfdJtndbTLP0mEdBMn53u8A3CVxsVhc5TbcuBXF8icMTpPfWLeKyrneWQ4+gIBSk9I998ATJqCsvsXiJdbgtwxNkfHIjMv43mTfpKzZmfB065HAXr+Yucpqy4iUWL7F4iXUYeygIBaEgFOTwByz/D1LudzN4iZXxgo836bxJ5036YQhQEApCQSjIogRcXuK5uNxxkTPjRc3B4bxJ5006b9J5k86b9MUIuHg1d5GTJ4gpAZ4gPEF4gvAE4Qli9grKexCeIDxBeILwBHF9gtQ3t07VDlaJYpUKVvKH4zKcaPw/yOD9H2TZRGtl1Nkvg2IVBCsBHJlhWxwcyk/z8tO82Z4GW7VvFN7w1NLh449a2ensWyWQlaq6SjAvRGQixMI5FISCeCXIEj3motf0xVVR91SYPxmilYC+pwgZDhWDglAQrwQRwdugOMWWEDxBFhDgPYg/9yBlSbEgzwNpEl/gIjff5uXbvJne5nWxSQF7D+ns1Q8FoSDVF8TiQzopSC8CFKTqgji7vOpuHZ4gFKTKgjyNCOvSDfEzfbzOWRlCQShI5QQR4BUF7keEm1zKwRNk/2uOyy8sdUtwmT/rR8+tvEz/N+jTAB6D4tE56Wx7KVnxZ4u5+g7NE8TxBg1WEMEfoXi8KwRqeNT1SbGYMRSEgpRyiSXAkwrsqroQC0XxVhA+H6SYX1bM+nyQPq9N5gDtyrALkCeqfEL06sdbQfiEqYIEyfiEqUU+K/WKKHZpJDtFO7sQyfaqXjL1EmJwThCAzyjMutoLxps8o3B/iJch85dLu0SwSwU7B0WIQRIE4FNujRXJ85TbGuY27E1OmTRO7tFEby+xDjIW+TcUuxU6bco9y7fbujm6H782zXWoeWXmF+CNgMZA93np2f9cfvQ8e7X5Z/gvSH4GjJCBAAXJAKuooSYfdy8qN+NkI0BBsvEqZDQFKQRjKUEoSCmYX5+EgjiAbpiSghiCyzONguShV+5cClIu7/lsFMQBdMOUFMQQXJ5pFCQPvXLnUpByefMEccA7T0oKkoee4VyeIIbgHEyjIA6gUxAH0A1TUhBDcHmmUZA89MqdS0HK5c17EAe886SkIHnoGc7lCWIIzsE0CuIAOgVxAN0wJQUxBJdnGgXJQ6/cuRSkXN4H70FUog86SM2UBgRmk3itwTQvp1Ti+yBekmPRQRCgIEEsM5s0JUBBTMlxXhAEKEgQy8wmTQlQEFNynBcEAQoSxDKzSVMCFMSUHOcFQYCCBLHMbNKUAAUxJcd5QRCgIEEsM5s0JUBBTMlxXhAEKEgQy8wmTQlQEFNynBcEAWeC1De3ztIOLhLFGogcB+jxAJYGQd3vJqcVeA6K7YiiXyDC72bXn/yS3y0tXn3pggw1J88WRF8AcPGgQg2sr90qsml2tLFlEPsuVRB+MWoQt9D+nkR+ko42PjVoHZYmSH2i/T2oXj5oANnP6wj8NU3iEweJSSmC1CfaW6H64UECx14WJfB0msSnDQof64LwsmpQtkqmPu5Jk3hdphkVHWxVkOE7p96rkTzCd6cquvoWy1KRDYNw425VkKGJ1v2i+LjFdWDo6hLYPYelp7+UvHO2uiX2rsyaIEdvmV7+hrl/7uldAkcMLAGVz6RjjR/73J81QerN1qcB3O0zHNaem8BdaRJfkTuKwwD2BBlv3QbBtQ57Y2rHBBTYOZvEZzguI1d6i4JM/Qgin81VHSf7TmA6TeITfG7CmiBDzdY2Adb4DIe15yeQJrG1PZa/ut4RrBVPQXrDD2EEBVlklSlICNu/d48UhIL03iUBj6AgFCTg7d+7dQpCQXrvkoBHUBAKEvD27906BaEgvXdJwCMoCAUJePv3bp2CUJDeuyTgERSEggS8/Xu3TkEoSO9dEvAICkJBAt7+vVunIBSk9y4JeAQFWWTxh5utnylwUcB7g60D/0iT+C0+g7D2ad56c2oLIFf6DIe15yYwlSbxitxRHAawJ8j45EZIdIPD3pjaMQEFHp5N4rWOy8iV3pogy5vt1R3ojlzVcbLXBAS4fiaJN/nchDVBulDqzdYzAN7tMyDWbk4giqIz92442esXSbuCTLSvhept5og501cCovjhzFh8qa/1H6jbqiDzp8hE+yGonus7KNafhYCmiOTsdEPcvYLw+s+6IENbnn1/NNd5SIEjvCbF4rMQWJcm8T1ZJlR1rHVBuo0vu6O1JqphW1UhsK7iCKhibHYsbhYX0W2kUgSZv9Ta3DoVHdkK6EluW2Z2awS0c2M6tmKjtfgOApcmyAFJtIPrBLjMQa9MaY/Adunglpmr4p/aS+EmcqmCHGixPt6+AKKXC/AJ3pu4Wfgisnb/ESja+W167GubsO60V4uIWbUYTgQ5COHup5bW9xyxRrpPuBU5TrXDG/mq7ZAF9ajUpiEyXYtqO/euP+m5ipebuzy3guQunwFIwC4BCmKXL6N7ToCCeL6ALN8uAQpily+je06Agni+gCzfLgEKYpcvo3tOgIJ4voAs3y4BCmKXL6N7ToCCeL6ALN8uAQpily+je06Agni+gCzfLgEKYpcvo3tOgIJ4voAs3y4BCmKXL6N7ToCCeL6ALN8uAQpily+je06Agni+gCzfLgEKYpcvo3tOgIJ4voAs3y4BCmKXL6N7ToCCeL6ALN8uAQpily+je06Agni+gCzfLgEKYpcvo3tOgIJ4voAs3y4BCmKXL6N7TuA/XI/SMn1shScAAAAASUVORK5CYII=;" parent="1" vertex="1">
          <mxGeometry x="70" y="140" width="40" height="40" as="geometry" />
        </mxCell>
        <mxCell id="MhH44BmzcimzEkGrFkP5-3" value="" style="shape=image;imageAspect=0;aspect=fixed;verticalLabelPosition=bottom;verticalAlign=top;image=data:image/png,iVBORw0KGgoAAAANSUhEUgAAAMgAAADICAYAAACtWK6eAAAAAXNSR0IArs4c6QAADe9JREFUeF7tnXuMXFUdx3+/O1uoEdAQiFLozDizm2pDDLuFSHe22PIwoOILJJoQwh+kYnwHIzGYWEgoGlFjNGhNiIkGEyUgmqCC1Va6d0uBlhilUXZmuneqRcUHPlJayt6fmT6wVnZn7jn3vO797r97f4/zOecz586dO3OZ8AcCILAgAQYbEACBhQlAEKwOEFiEAATB8gABCII1AAJqBLCDqHFDVEkIQJCSTDSGqUYAgqhxQ1RJCECQkkw0hqlGAIKocUNUSQhAkJJMNIapRgCCqHFDVEkIQJCSTDSGqUYAgqhxQ1RJCECQkkw0hqlGAIKocUNUSQhAkJJMNIapRgCCqHFDVEkIQJCSTDSGqUYAgqhxQ1RJCECQkkw0hqlGAIKocUNUSQhAkJJMNIapRgCCqHFDVEkIQJCSTDSGqUYAgqhxQ1RJCAQtyDmr9549UjkwJlIZFZk/pyRzpjnMyl+Z0/Z8evLs77cvb2smK3x4UILUJ/ecJyyXMdEaEbmImF5V+BkyPEAmfliEHomIHt8z03jYcLng0gcjSHWyczMz3UJEpwZHOZSGme9KZeT2vXF1Xygtm+7Te0GO7BrpF4noYtMwkP8wgY4w39abbnwbPIi8FqQ22b6YmB8koqWYLLsEhOgbvbj5QbtV/avmrSDVydkNzNFn/UNWoo6Efp7MNC8t0Yj/b6heCgI5/FmSQvS5Xtz8tD8d2e3EO0Gqk91rmeU7djGg2mIERNJbezNjG8pIyTtBaq3OE0S0qoyT4fWYRS5JZkZ/4XWPBprzSpDqVHs9C28yME6k1Cfw4yRuvk0/TVgZvBIEu4fvi4dvSOLG3b53mWd/3ghSnepcykI/y3NwyJU7gfuTuHlV7lk9TuiNILVW9wtE8kmPWaE1kr8k8eiZZQLhkSCdPxLRa8oEP8ixpulEsn3sySB7V2jaC0GaF7WXvzjPPYX+EWKZgDBf15tulOYyvBeCVFtPX8ZUwZ2klhe7Ujnm25PpxmeUYgMM8kKQWqv9YSL+aoD8ytjyfUncvLosA/dCENxaEtJy461J3FgXUsc6vUIQHXqljIUg1qcdO4h15BoFIYgGPLVQCKLGzU0UBLHOHYJYR65REIJowFMLhSBq3NxEQRDr3CGIdeQaBbMLsqL121MPcmWVEK+SVLR+dEOIZkbmK7/as6PxJ41BDB2Kq1hDo8KBRwhkE6Q+2b5emPtfna7nSZCFvzk30/hAnjlfLhcEMU24cPmHF6TW6ojp4Sdx0+gaNpp8WDg4xRqWlA/HDSdIfbK7SVjWm+6Yhb4yN9P8uKk6EMQU2cLmHSzI6JrZMw+l0Z+tIRC6Oplp3meiHgQxQbXQOQcLUp+aXSsSbbGHgTcmcaP/q5u5/0GQ3JEWPeEQgrQ6nxCiL1kjwfRgMt18u4l6EMQE1ULnHCxIbar9bhK+3xYGk1e0IIitWSxMncGCLJ+cbUYcWXy0grkfk4AghVm4tgYyWJB+J/VW9yEheYv5rnjHoQNLL963c9l+E7UgiAmqhc45nCDVqfYqFu7/CKDRP2E5vzc9utNUEQhiimxh8w4nSH/4r2t135GS9H9H6wwTOET4o72ZhtFvokIQEzNX6JzDC3IMQ/+DYIoqF7LIaiI6TQ8PbyWiJ+bTJZtsPEIOgujNVgmjswtyIqRaq7uFSNYOD0+/5vC1/vdICKJKrrRx+osVgmRcPLgXKyMwp4dDEOv4NQX5pzBvp3T+UdXGsz7Jqv+8jIVrRUKUZtqZ862/OAVmPp2IriDiUTVeEESNm0aUhiBfXhKld7S3jT2rUZ6y3pad9wNlXNSvTrY/xcyfz84NgmRnphmhJgjvSOLGhZqlD4e7WKDH9+2qfr3VuVGIvp6NIQTJxiuHo9UEkY8k8ejXcihfWkGOvjhk/NFwCJLHmsuUQ0UQZrlibnr0p5kKLXCwq1fwY+24rF9vdR4ToguG5whBhmeV05FqgqTr5qbH+h8aaf+5XKCuT/FcXHJ1UVN1kWS62qJaZFAcBMn23e08LxK4WKwuag5agwv9H4KU+E36kd3L/qfaLmpCEFUCEMT6bR8QJONixSkWTrEWXzL6FwYyLsmXDscpFnYQ7CCL2ANBIAgEgSCLb7C4zGv31nO8B8l4wof3IHgPgvcgixCAIBAEgkCQBQm4PMVzcbrjombGkxpcxToemMsFiltNhlm6uMy7IeuXhphxL9YwS2vQMS5ezV3UHMQBt5osQgg7CK5iQRAI8rIEXLyau6iJHUSVAD4oxAeF+KAQHxQuRMDFq7mLmqqvn7jVBDuIlR2kuiZZSfPzE8wyQcTj+OG4DMrig8LifVBYWz07ThFNEEV9GY5KQUszLIvjDsVlXlzmzbByfPtG4cqVvzlp/+mvHKc0nZCIx0nSCRIeJ6Yow7AWeyewNYkb6/LJlS0LTrFwipX5FGv/klOuXPrCcxMcVcb7IjDJOBG9MdvSy3I0dhDsIBnWi+sdhEheS0Svz9Cy5qEQBIJkWEJuBcnQaE6HCvNDvenG5Tmly5QGp1g4xcp4ipVpfeVysMmHdA5qEIJAEO8FITL3kE4IMogABPFaEJenV/2lgx0EgvgsyFMSjVzT21bbPcTrnJFDIAgE8VGQg0LyAEVLbnMpB3aQo685uN09y+3uRl6o+0mfIqJHiXi78KEtvekVXWOVMiTGDoIdxMkOwkS/FqLHDgsRVba73ikWcgaCQBBLgsiTRLzLdyFOFCVgQfB8kAxnCgsemv35IENVnWeiXSnJLqbocZ93iEGjCVYQIjxhatDkDvP/WquT8QlTL5v1IJHsIop2ssiutDKyw9dTpmGYHH9MwILgGYVZJ/vE49WeUXg4y7+Z+PAOQcy7iCs7iyJEYU6xjg4ET7lVtETnKbcR0Y174sbvFEsHFRbwDvIS5wNE1CPiferks17m5Fwe/fbffq3WfwWRjBFR/3npCn/u7qxVaFY7pAiCaENAgiwEIEgWWrkcq/KV21wKI4kCAQiiAE0vBILo8bMbDUHs8iYiCGIduUZBCKIBTy0UgqhxcxMFQaxzhyDWkWsUhCAa8NRCIYgaNzdREMQ6dwhiHblGQQiiAU8tFIKocXMTBUGsc4cg1pFrFIQgGvDUQiGIGjc3URDEOncIYh25RkEIogFPLRSCqHFzEwVBrHOHINaRaxSEIBrw1EIhiBo3N1EQxDr3I4JU3my9MAoqEXD1rA6lZjWDvPg+iOYYEA4CxghAEGNokbgIBCBIEWYRYzBGAIIYQ4vERSAAQYowixiDMQIQxBhaJC4CAQhShFnEGIwRgCDG0CJxEQhAkCLMIsZgjAAEMYYWiYtAAIIUYRYxBmMEIIgxtEhcBAIQpAiziDEYI+BMkNrk3Grh+SuZ+r9szmcRyTIiPsnYSJE4JwL9X9GXZ0hoh0T0k5GltK27ufmPnJJ7l8a6IMtb3TURyceI6CrvaKAhFQI9Jtk4F49uUgn2PcaqIPhilO/LQau/HyRx8z1aGTwMtiZItdX5FhNd7yEDtJQfgT8kcfOc/NK5z2RFkFqr8yARvdX9cNGBBQJPJXHzXAt1rJQwLghOq6zMo19FRO5NZkav8asptW6MClKfevpNIpVHiAhXp9TmJ9goJrmxCG/cjQpSbXUfYJJ3BjvLaFyHQE945LzedO3vOklcxxoTZNnafWcsOfT8s64HiPruCDDJ++bi0e+560C/sjFBqlPd97LI9/VbRIZwCfDdSdy4Idz+iYwJUpvs3kksN4UMB71rE9iZxM3ztbM4TGBQkM53ien9DseG0s4J8L4kbpztvA2NBswJ0upuocP3WeGvzASSuGlsjdngaqz5GgSxMX/e14AgC0wRBPF+7VppEIJAECsLLdQiEASChLp2rfQNQSCIlYUWahEIAkFCXbtW+oYgEMTKQgu1CASBIKGuXSt9QxAIYmWhhVoEgkCQUNeulb4hCASxstBCLQJBIEioa9dK3xAEglhZaKEWgSALzFy91f2RkFwZ6sSi71wI/CuJm6flkslREmN389Ynu5uEZb2jcaGsHwSeTuLmCj9aUevCmCD4uR+1CSlWFG9N4sa6kMdkTpCp9ioWfiJkOOhdl0B6SxKPbdTN4jLemCD9QdWmurtJ5A0uB4ja7gikRBfsjZtBv0iaFuQmErnT3RShskMC9yRx81qH9XMpbVSQI7tIZzMJXZJLt0gSCoG/STSyprettjuUhhfq07gg1VZniok2E9HJocNC/8MREOZretONe4c72u+jjAvSH359anatSLTFbxToLhcCTB9Kppt35ZLLgyRWBOmPs7omWcnpi/3HINQ9GDdaMEBAJL21NzO2wUBqZymtCXJMkig9dLMQX+dsxChsgADvYJm/Y25m7IcGkjtNaVWQYyOtT7UvT4WuZ+J34b2J0/nXLM5bReZ/ecpzBzfu3n3uC5rJvAx3IsgxEitXyknPv3rPWqF0GTGflUqKN/JeLpPjmor6T7nlfcyVncm2+jO+t6vbn1NBdJtHPAiYJgBBTBNG/qAJQJCgpw/NmyYAQUwTRv6gCUCQoKcPzZsmAEFME0b+oAlAkKCnD82bJgBBTBNG/qAJQJCgpw/NmyYAQUwTRv6gCUCQoKcPzZsmAEFME0b+oAlAkKCnD82bJgBBTBNG/qAJQJCgpw/NmyYAQUwTRv6gCUCQoKcPzZsmAEFME0b+oAlAkKCnD82bJgBBTBNG/qAJQJCgpw/NmyYAQUwTRv6gCUCQoKcPzZsmAEFME0b+oAlAkKCnD82bJgBBTBNG/qAJ/AeTj/4y6xuyXgAAAABJRU5ErkJggg==;" parent="1" vertex="1">
          <mxGeometry x="110" y="140" width="40" height="40" as="geometry" />
        </mxCell>
        <mxCell id="MhH44BmzcimzEkGrFkP5-4" value="" style="shape=image;imageAspect=0;aspect=fixed;verticalLabelPosition=bottom;verticalAlign=top;image=data:image/png,iVBORw0KGgoAAAANSUhEUgAAAMgAAADICAYAAACtWK6eAAAAAXNSR0IArs4c6QAADcBJREFUeF7tnW2MXFUZx//PbSnwAYwzW3k16c4uoI0x7BYiJKItLwZUfAOJJoTwgSDG92CgO9ukW+LcXRQ1RoPWpDGRaKIERJOq4EsrJkKBlhhDE3R3Vpu4It07BDVAoXMfM9tSpWF35p57z7kv579f+qHnec7z/M757bkze2eugD8kQALLEhCyIQESWJ4ABeHuIIEVCFAQbg8SoCDcAyRgRoAniBk3RnlCgIJ4stBs04wABTHjxihPCFAQTxaabZoRoCBm3BjlCQEK4slCs00zAhTEjBujPCFAQTxZaLZpRoCCmHFjlCcEKIgnC802zQhQEDNujPKEAAXxZKHZphkBCmLGjVGeEKAgniw02zQjQEHMuDHKEwIUxJOFZptmBCiIGTdGeUKAgniy0GzTjAAFMePGKE8IUBBPFpptmhGgIGbcGOUJgVILUj938ix5uXtOLMEoBGd7smap2hRBFAOzqxH/5eDczGyqZB4El0qQteua5+sqXKGKSwC8C8AbPFgjyy3KQ1B9WBE83pn/0kOWJytd+tIIUm80bwcwCeCU0lEuTcFyt5ywurX49LaF0pRsudDCC9I7NeJAvwrIpZZZMP0RAnMQ3BHNhd8nEKDQgtRHtlwKjXcCOImL5ZzAd6J2+EnnsxZswsIKUms0pwTYWjBevpXzm6gdXu5b0//fbyEFoRxF2pIyE7VbE0WqyGUthROkPty8HoJ7XELgXCsTUGBbpx1O+cipeII0mk8A2ODjYhS6Z4kvi+ZmflvoGi0UVyhBhkaaN6tiu4U+mTIlAYX8vNNuvS9lmtKFF0qQOk+PQm8gVb2pMz+9o9BFZlxcYQSpN7ZcDsS/yrg/psuWwP1RO7wm25TFzlYYQWojk18R1S8WG5ff1Smw2GmHa32iUBhB6o3mMwBO8wl+GXsNgnj84OzMk2Ws3aTmQghSG5l8s6geMGmAMY4JqNwQzbe8eRu+GIIMN68QAe8kdbzXjaYTtKK5cItRbAmDCiFIfXjy0xD9Zgn5+VjyfVE7vNaXxgshCG8tKdF2U90dzU9vKlHFqUqlIKnweRhMQdwvOk8Q98yNZ6QgxuiMAymIMTr3gRTEPXMK4p658YwUxBidcSAFMUbnPpCCuGdOQdwzN57RQJCh8247BYeCDZBgQywpv3RD4z+sRvDHZ+fDfxr3kCCQ72IlgMWhABIKUh9p3ghd+uj0uiz5qeK7nfnwE1nmfL1cFMQ24arlTyBIvdFU2+1H7dDqHraafFA4vMQalFQBxg0oSG24uV0ENzuo+BtRO/y8rXkoiC2yVc07gCCnj06sfSWWZ10hUMi1nXbrPhvzURAbVKuccwBBhtZt3qhBsMsZBpEwmmv1vnUz8x8KkjnSiiccQJBao/kFAb7mioQCOzvt8P025qMgNqhWOecAgtRHJj8M1ftdYbD5jhYFcbWKVZlnAEHeNLplpBvHzh6tYPPLJChIVTauqz4GEKRXSr0x+SCg73FQ1p4TX1pz6cLC1As25qIgNqhWOeeAggyNbN6gGvS+BNDqj0h8weLczF5bk1AQW2SrmndAQXrtDw1v+QBEdyh0yAoOwWejudDqJ1EpiJWVq3DSBIK8SmHpD8GCi6C4GMCpqeio7tYgeGIVuttdPEKOgqRaLQ+DDQQ5nlJ9eGIXRDYOTC+DOQee67iBFMSUnK9xGWxWCpJw8/BerITA8hxOQdzTTynIvyB4RBWPmlae9ElWvedlrDBX7w7WRCdzxvOviEEUNQiuAjBqxIuCGGFLFWQqiABfXx3o9DOz0wfTFJD0tuysHyiTx/z1kYnboHJnYm4UJDGy1AGGguyJ2uFFqSdf+qNWss8tVEGQpbdhG5O3KPTbiRhSkES4MhlsJIjKZ6L51reyKMBXQXrsEn9pOAXJYssly2EiiEp8VWdu5pfJZnr90Z4L8hiACwfmSEEGRpXZQBNBJI43Lf51ZncWRXgtSA5/k+DbvAl3LQXJ7zVQHps1jzkTbsljwxO9HWk6Sb84CkJBVtwjGVzW9duDy/0/BfH4XaylF+m8xFr570amZmUZxxOEJwhPkBUIUBAKQkEoyLIE8nwXjZdYK18L8TUIX4M4v/U8DylNXxJQEApCQVawh4JQEApCQVY+YPN8DXD0fqhEX/Kc5c2SeVzu5DEnL7FMCfAE4QnCE4QnyHIE8vhtnsecpr8/+RqEJwhPEJ4gPEF4gpidITxBeILwBOEJwhOEJwhPEDMCPEGcnCC10Yn10pVxEYyr6hi/OC7BduXNitW7WXHt6Oax7pIQMgbFOARjAE5KsC3+N5SfB2lOJf1uKH7kNpwy2mzHBWXyluv6rWvqL8RjCA6PqwRjovE4ID0hgixqTPro6UzmPJqEL9J5iZX4Eis4ec3VePGl8a6sGhOVMREdU+DtWW7M1+TiCcITJMnmyvtWE4icDuAtSWpONZaCUJAkGyhXQZIUmtVYwYPRXHhlVumS5OElFi+xkl1iJdldGY21+ZDOfiVSEApSAkH0ps789I5+m9nG/1MQClJsQXK8vOoJR0EoSIEFkac0iK/rzE7vt3E6DJKTglCQIgpySFUfwCrckaccPEGO/grhJwoTPC9wkF+7RmPkKQEejTV+pNvVXc8fmGkbpck4iCcIT5CcThD9kyB4rCcEVuGRvE+K5byiIBTEjSCqT4pgX6wotBDHi1JaQfh8kIzuxWo0kz0fZKBLGO0C2KfAPigeL/IJ0a+d0goCPmEqm5sVG81nAJzWb6Os/P96CIp9CLBXj/y7p6iXTEn7LK8gAJ9RmHS1jxtv9IzCIzn+0zsdAui+nhC6CnurIkRlLrGOvgXHp9waSpLmKbeC7i2L819+2nDqUoWV+QR5FfRLAA5AdcGYvCR8m1M1k0e/HavX5fwiJwM4B0DNiFeOd9Ya1ZsyqAqCpETA8EQEKEgiXJkMNvnIbSYTM0lyAhQkObO0ERQkLUGH8RTEIeyjU1EQ98yNZ6QgxuiMAymIMTr3gRTEPXMK4p658YwUxBidcSAFMUbnPpCCuGdOQdwzN56RghijMw6kIMbo3AdSEPfMKYh75sYzUhBjdMaBFMQYnftACuKeOQVxz9x4RgpijM44kIIYo3MfSEHcM6cg7pkbz0hBjNEZB1IQY3TuAymIe+ZLgqi+2/3MnNGEQDQ/vckkrowxhfg8SBnBsWY/CFAQP9aZXRoSoCCG4BjmBwEK4sc6s0tDAhTEEBzD/CBAQfxYZ3ZpSICCGIJjmB8EKIgf68wuDQlQEENwDPODAAXxY53ZpSEBCmIIjmF+EKAgfqwzuzQkQEEMwTHMDwK5CVIbnbhYYrkaio0QnAHgTABr/MBe4i4FC1D8A8AeQfCLLl75/XPtO58vcUcrlu5ckLXDE5fEIp8DcE1VofrVlx4QQbg4N729in07FYQfjKriFjrW00+idviRqnXoTJB6o/k9ADdWDSD7eQ2Bv0ft8OwqMXEiSK0xuVOg760SOPayHAF5Kmq33lYVPtYF4WVVVbZKkj703qg9fV2SiKKOtSpIfd3EOxDIw3x3qqjLb68uEb2lCi/c7Qoy3HwAgg/aWwZmLi4BPXD4sJ7//IGZ54pbY//KrAly5rlTQ4cOv3ywfwkcUVUCKvKxzlzrR2Xuz5ogteHJj4roj8sMh7WnIyCQHYvt1k3psuQbbU+QkeZdorg13/Y4e84E9kbt8IKca0g1vT1BGhM/FMjHU1XH4HITECxEc+FZZW7CmiD14YldENlYZjisPT2BqB1a22Ppq+ufwVrxFKQ/fB9GUJBlVpmC+LD9+/dIQShI/13i8QgKQkE83v79W6cgFKT/LvF4BAWhIB5v//6tUxAK0n+XeDyCglAQj7d//9YpCAXpv0s8HkFBKIjH279/6xSEgvTfJR6PoCAUxOPt3791CkJB+u8Sj0dQkOUEaTR/BuBqj/cGWwf+HbXDU8sMwtrdvLXh5nYR3FxmOKw9NYE/R+3wvNRZckxgT5BGc0qArTn2xqnzJqC6O5qf3pR3GWnmtybI0MjmDarBE2mKY2zJCahORvPTYZm7sCZID0p9pLkfireWGRBrNycgkAsX261S/5K0KsjQcPNWFdxljpiR5SWgP4ja09eXt/4jlVsVZOkUaTR/DeCysoNi/YkIdDTQSzqz0/sTRRVwsHVB3tiYfGcA7UlyYgH7Z0kWCKjKdZ351r0WUjtPaV2QXkdD6zZv1CDY5bw7TpgDAflU1G7dncPEVqZ0Ikiv8troxHqJZSeAdVY6YdLcCSiwrdMOp3IvJMMCnAlyTJKu3A7BDRn2wFT5E9iDQKaj2dZP8y8l2wqcCvJq6bWRzVcilhtF5EN8bZLtgjrNprpbRX7XOemEEPu3vex0bkeT5SLIsd7Wb11Te7G7UYL4TCjOUL6Qd7Ts5tMES0+5DRbQjfcu/i3sPe220j/5ClJptGyuCgQoSBVWkT1YI0BBrKFl4ioQoCBVWEX2YI0ABbGGlomrQICCVGEV2YM1AhTEGlomrgIBClKFVWQP1ghQEGtombgKBChIFVaRPVgjQEGsoWXiKhCgIFVYRfZgjQAFsYaWiatAgIJUYRXZgzUCFMQaWiauAgEKUoVVZA/WCFAQa2iZuAoEKEgVVpE9WCNAQayhZeIqEKAgVVhF9mCNAAWxhpaJq0CAglRhFdmDNQIUxBpaJq4CAQpShVVkD9YIUBBraJm4CgQoSBVWkT1YI/Bfpp79MpbYLv4AAAAASUVORK5CYII=;" parent="1" vertex="1">
          <mxGeometry x="200" y="140" width="40" height="40" as="geometry" />
        </mxCell>
        <mxCell id="MhH44BmzcimzEkGrFkP5-5" value="" style="shape=image;imageAspect=0;aspect=fixed;verticalLabelPosition=bottom;verticalAlign=top;image=data:image/png,iVBORw0KGgoAAAANSUhEUgAAAMgAAADICAYAAACtWK6eAAAAAXNSR0IArs4c6QAADcBJREFUeF7tnW2MXFUZx//PbSnwAYwzW3k16c4uoI0x7BYiJKItLwZUfAOJJoTwgSDG92CgO9ukW+LcXRQ1RoPWpDGRaKIERJOq4EsrJkKBlhhDE3R3Vpu4It07BDVAoXMfM9tSpWF35p57z7kv579f+qHnec7z/M757bkze2eugD8kQALLEhCyIQESWJ4ABeHuIIEVCFAQbg8SoCDcAyRgRoAniBk3RnlCgIJ4stBs04wABTHjxihPCFAQTxaabZoRoCBm3BjlCQEK4slCs00zAhTEjBujPCFAQTxZaLZpRoCCmHFjlCcEKIgnC802zQhQEDNujPKEAAXxZKHZphkBCmLGjVGeEKAgniw02zQjQEHMuDHKEwIUxJOFZptmBCiIGTdGeUKAgniy0GzTjAAFMePGKE8IUBBPFpptmhGgIGbcGOUJgVILUj938ix5uXtOLMEoBGd7smap2hRBFAOzqxH/5eDczGyqZB4El0qQteua5+sqXKGKSwC8C8AbPFgjyy3KQ1B9WBE83pn/0kOWJytd+tIIUm80bwcwCeCU0lEuTcFyt5ywurX49LaF0pRsudDCC9I7NeJAvwrIpZZZMP0RAnMQ3BHNhd8nEKDQgtRHtlwKjXcCOImL5ZzAd6J2+EnnsxZswsIKUms0pwTYWjBevpXzm6gdXu5b0//fbyEFoRxF2pIyE7VbE0WqyGUthROkPty8HoJ7XELgXCsTUGBbpx1O+cipeII0mk8A2ODjYhS6Z4kvi+ZmflvoGi0UVyhBhkaaN6tiu4U+mTIlAYX8vNNuvS9lmtKFF0qQOk+PQm8gVb2pMz+9o9BFZlxcYQSpN7ZcDsS/yrg/psuWwP1RO7wm25TFzlYYQWojk18R1S8WG5ff1Smw2GmHa32iUBhB6o3mMwBO8wl+GXsNgnj84OzMk2Ws3aTmQghSG5l8s6geMGmAMY4JqNwQzbe8eRu+GIIMN68QAe8kdbzXjaYTtKK5cItRbAmDCiFIfXjy0xD9Zgn5+VjyfVE7vNaXxgshCG8tKdF2U90dzU9vKlHFqUqlIKnweRhMQdwvOk8Q98yNZ6QgxuiMAymIMTr3gRTEPXMK4p658YwUxBidcSAFMUbnPpCCuGdOQdwzN57RQJCh8247BYeCDZBgQywpv3RD4z+sRvDHZ+fDfxr3kCCQ72IlgMWhABIKUh9p3ghd+uj0uiz5qeK7nfnwE1nmfL1cFMQ24arlTyBIvdFU2+1H7dDqHraafFA4vMQalFQBxg0oSG24uV0ENzuo+BtRO/y8rXkoiC2yVc07gCCnj06sfSWWZ10hUMi1nXbrPhvzURAbVKuccwBBhtZt3qhBsMsZBpEwmmv1vnUz8x8KkjnSiiccQJBao/kFAb7mioQCOzvt8P025qMgNqhWOecAgtRHJj8M1ftdYbD5jhYFcbWKVZlnAEHeNLplpBvHzh6tYPPLJChIVTauqz4GEKRXSr0x+SCg73FQ1p4TX1pz6cLC1As25qIgNqhWOeeAggyNbN6gGvS+BNDqj0h8weLczF5bk1AQW2SrmndAQXrtDw1v+QBEdyh0yAoOwWejudDqJ1EpiJWVq3DSBIK8SmHpD8GCi6C4GMCpqeio7tYgeGIVuttdPEKOgqRaLQ+DDQQ5nlJ9eGIXRDYOTC+DOQee67iBFMSUnK9xGWxWCpJw8/BerITA8hxOQdzTTynIvyB4RBWPmlae9ElWvedlrDBX7w7WRCdzxvOviEEUNQiuAjBqxIuCGGFLFWQqiABfXx3o9DOz0wfTFJD0tuysHyiTx/z1kYnboHJnYm4UJDGy1AGGguyJ2uFFqSdf+qNWss8tVEGQpbdhG5O3KPTbiRhSkES4MhlsJIjKZ6L51reyKMBXQXrsEn9pOAXJYssly2EiiEp8VWdu5pfJZnr90Z4L8hiACwfmSEEGRpXZQBNBJI43Lf51ZncWRXgtSA5/k+DbvAl3LQXJ7zVQHps1jzkTbsljwxO9HWk6Sb84CkJBVtwjGVzW9duDy/0/BfH4XaylF+m8xFr570amZmUZxxOEJwhPkBUIUBAKQkEoyLIE8nwXjZdYK18L8TUIX4M4v/U8DylNXxJQEApCQVawh4JQEApCQVY+YPN8DXD0fqhEX/Kc5c2SeVzu5DEnL7FMCfAE4QnCE4QnyHIE8vhtnsecpr8/+RqEJwhPEJ4gPEF4gpidITxBeILwBOEJwhOEJwhPEDMCPEGcnCC10Yn10pVxEYyr6hi/OC7BduXNitW7WXHt6Oax7pIQMgbFOARjAE5KsC3+N5SfB2lOJf1uKH7kNpwy2mzHBWXyluv6rWvqL8RjCA6PqwRjovE4ID0hgixqTPro6UzmPJqEL9J5iZX4Eis4ec3VePGl8a6sGhOVMREdU+DtWW7M1+TiCcITJMnmyvtWE4icDuAtSWpONZaCUJAkGyhXQZIUmtVYwYPRXHhlVumS5OElFi+xkl1iJdldGY21+ZDOfiVSEApSAkH0ps789I5+m9nG/1MQClJsQXK8vOoJR0EoSIEFkac0iK/rzE7vt3E6DJKTglCQIgpySFUfwCrckaccPEGO/grhJwoTPC9wkF+7RmPkKQEejTV+pNvVXc8fmGkbpck4iCcIT5CcThD9kyB4rCcEVuGRvE+K5byiIBTEjSCqT4pgX6wotBDHi1JaQfh8kIzuxWo0kz0fZKBLGO0C2KfAPigeL/IJ0a+d0goCPmEqm5sVG81nAJzWb6Os/P96CIp9CLBXj/y7p6iXTEn7LK8gAJ9RmHS1jxtv9IzCIzn+0zsdAui+nhC6CnurIkRlLrGOvgXHp9waSpLmKbeC7i2L819+2nDqUoWV+QR5FfRLAA5AdcGYvCR8m1M1k0e/HavX5fwiJwM4B0DNiFeOd9Ya1ZsyqAqCpETA8EQEKEgiXJkMNvnIbSYTM0lyAhQkObO0ERQkLUGH8RTEIeyjU1EQ98yNZ6QgxuiMAymIMTr3gRTEPXMK4p658YwUxBidcSAFMUbnPpCCuGdOQdwzN56RghijMw6kIMbo3AdSEPfMKYh75sYzUhBjdMaBFMQYnftACuKeOQVxz9x4RgpijM44kIIYo3MfSEHcM6cg7pkbz0hBjNEZB1IQY3TuAymIe+ZLgqi+2/3MnNGEQDQ/vckkrowxhfg8SBnBsWY/CFAQP9aZXRoSoCCG4BjmBwEK4sc6s0tDAhTEEBzD/CBAQfxYZ3ZpSICCGIJjmB8EKIgf68wuDQlQEENwDPODAAXxY53ZpSEBCmIIjmF+EKAgfqwzuzQkQEEMwTHMDwK5CVIbnbhYYrkaio0QnAHgTABr/MBe4i4FC1D8A8AeQfCLLl75/XPtO58vcUcrlu5ckLXDE5fEIp8DcE1VofrVlx4QQbg4N729in07FYQfjKriFjrW00+idviRqnXoTJB6o/k9ADdWDSD7eQ2Bv0ft8OwqMXEiSK0xuVOg760SOPayHAF5Kmq33lYVPtYF4WVVVbZKkj703qg9fV2SiKKOtSpIfd3EOxDIw3x3qqjLb68uEb2lCi/c7Qoy3HwAgg/aWwZmLi4BPXD4sJ7//IGZ54pbY//KrAly5rlTQ4cOv3ywfwkcUVUCKvKxzlzrR2Xuz5ogteHJj4roj8sMh7WnIyCQHYvt1k3psuQbbU+QkeZdorg13/Y4e84E9kbt8IKca0g1vT1BGhM/FMjHU1XH4HITECxEc+FZZW7CmiD14YldENlYZjisPT2BqB1a22Ppq+ufwVrxFKQ/fB9GUJBlVpmC+LD9+/dIQShI/13i8QgKQkE83v79W6cgFKT/LvF4BAWhIB5v//6tUxAK0n+XeDyCglAQj7d//9YpCAXpv0s8HkFBKIjH279/6xSEgvTfJR6PoCAUxOPt3791CkJB+u8Sj0dQkOUEaTR/BuBqj/cGWwf+HbXDU8sMwtrdvLXh5nYR3FxmOKw9NYE/R+3wvNRZckxgT5BGc0qArTn2xqnzJqC6O5qf3pR3GWnmtybI0MjmDarBE2mKY2zJCahORvPTYZm7sCZID0p9pLkfireWGRBrNycgkAsX261S/5K0KsjQcPNWFdxljpiR5SWgP4ja09eXt/4jlVsVZOkUaTR/DeCysoNi/YkIdDTQSzqz0/sTRRVwsHVB3tiYfGcA7UlyYgH7Z0kWCKjKdZ351r0WUjtPaV2QXkdD6zZv1CDY5bw7TpgDAflU1G7dncPEVqZ0Ikiv8troxHqJZSeAdVY6YdLcCSiwrdMOp3IvJMMCnAlyTJKu3A7BDRn2wFT5E9iDQKaj2dZP8y8l2wqcCvJq6bWRzVcilhtF5EN8bZLtgjrNprpbRX7XOemEEPu3vex0bkeT5SLIsd7Wb11Te7G7UYL4TCjOUL6Qd7Ts5tMES0+5DRbQjfcu/i3sPe220j/5ClJptGyuCgQoSBVWkT1YI0BBrKFl4ioQoCBVWEX2YI0ABbGGlomrQICCVGEV2YM1AhTEGlomrgIBClKFVWQP1ghQEGtombgKBChIFVaRPVgjQEGsoWXiKhCgIFVYRfZgjQAFsYaWiatAgIJUYRXZgzUCFMQaWiauAgEKUoVVZA/WCFAQa2iZuAoEKEgVVpE9WCNAQayhZeIqEKAgVVhF9mCNAAWxhpaJq0CAglRhFdmDNQIUxBpaJq4CAQpShVVkD9YIUBBraJm4CgQoSBVWkT1YI/Bfpp79MpbYLv4AAAAASUVORK5CYII=;" parent="1" vertex="1">
          <mxGeometry x="240" y="140" width="40" height="40" as="geometry" />
        </mxCell>
        <mxCell id="MhH44BmzcimzEkGrFkP5-6" value="" style="rounded=0;whiteSpace=wrap;html=1;" parent="1" vertex="1">
          <mxGeometry x="60" y="30" width="240" height="70" as="geometry" />
        </mxCell>
        <mxCell id="MhH44BmzcimzEkGrFkP5-7" value="" style="shape=image;imageAspect=0;aspect=fixed;verticalLabelPosition=bottom;verticalAlign=top;image=data:image/png,iVBORw0KGgoAAAANSUhEUgAAAMgAAADICAYAAACtWK6eAAAAAXNSR0IArs4c6QAAIABJREFUeF7tXXmYHFW1/53qrupJeLJpzHT3hEUC6eoEROCJK8JzgaAYQAUMi4okQUVxX1FB1CeooLiRmRAREYGAiGDC4nNGUXCLCiTdPRg0IdPVE4IQJWamq7rved/tmdEsM9O3tl5mqr6Pjz/mrL/bv1TVrXPPIbTA1clzZ5FtnAjiowDuIlAXmOeAav8fANFmBg8ANACmP7Jh3ztIG7a2QOhRCFMcAWpWfkk7c7RGtJAZrwVwnIc4fkmE+wXzmpJRWOtBP1KJEKiLQMMJUiMGtKUMXlo3OkUBAnULiO6IKIqARWLKCDSMIJ08Pxtz+OIgibF7lpIoVZ2+Pkjrc8oIRIIRApMg0BCCSHJojrgVwPwGrMZ6oWtnRCRpANLTwEXoBBklx58B6A3E0xG6dmREkgYiPkVdhUqQlJN5GZh+3TTsiF9u6YUHm+Y/ctz2CIRGkK7yvCMEaQ83GyGNxQsHEv2PNDuOyH97IhAKQQ5kM+lUsA6M/ZsOC+FpPY4FmyhfanosUQBth0DgBDmaj9ZLzo6fA3hFC6Hxq6Q+83/W0lqnhWKKQmkDBAInSLJsXk6ES1oud8KVlp7/WMvFFQXU0ggESpCuYfNQEcNvwdivJbMm8QpL72/epkFLghIFNRkCgRIkbZtfY+DiloWc+SdWorCoZeOLAms5BAIjSNI2jyLw7wCKtVyWuwRE77SM3MrWjjGKrlUQCIwgKSfzWTBd2iqJTRgH4Q5Lz5/e8nFGAbYEAsERxDb/BODIlshq8iCGHZ1mbaXc9jaINQqxyQgEQpAuO3usAP+mybkouyeBNxQ78j9VVogEpy0CgRAk7ZhXM+P97YIiA9eWjPy72iXeKM7mIRAIQVK2KQ8sHdW8NFx7/qNl5I92rRUpTDsEgiLIIIDZbYTeFsvId7ZRvFGoTULAP0H4LbGUs67SpPg9u7X0BXHQqqpnA5HitEDAN0GSnD2AHN7UbmixTgeWKPdEu8UdxdtYBHwTJO1kXspMbXfmgohfVtQLDzUW7shbuyHgmyCjJwbXt1viAB1lGTn57Sa6IgQmRMA3QfbnuXt3OPo/2g5jPXaARes2t13cUcANRcA3QWS0KduUBNm7oZH7dabP3MuitTv8mon0pzYCQRFkXYM6lgS1GpssI39QUMYiO1MXgaAI8kMAZ7ULTATcWDTy57ZLvFGczUMgEIJ0DmcXahqvbl4a7jwzeFnJKHS704qkpyMCgRCk9h7imCUw2uPrNNFdVBXdxY7C3dNx0aOc1REIjiB25hqA3qvuukUkCXdqVXQPdOTb5g7YIshNizACI0i7PWaNu7qEOxhad0lff8+0WP0oyboIBEYQ6SnpZFcR85vrem0DASK6vdYxXi/c1wbhRiGGhECgBOkcyhyvxag3pFibZpaZbyONllt6/mdNCyJy3BQEAiVI7WXdzqwE6B1NyaYRThm3kqYtL+rrZXO86JriCAROkLQ9/4UMIf+lfd4Uxw5g3KxpvHxAL/RN+VynaYKBE6T2LmJnlshhNtMLU76JiZaX9Pwvp1feUzvbUAgy8qiV/QbAF01t+MbPTn6pF1XqLs3IPTAd859KOYdGkBpJHPM+jAzpbM2LUQIhGWZwDNxAFdFtzYxanoaJc1i2QyWIDDpdznyBiT4ZVgJ+7TLTpwgwAF4GCrsSgK4nEt3RQS2/q9Y4/dAJ0vB3EkIZAp8BcCEIB6tBSRdbRu6aOTwvVbVjy0C8rAFNKFZqoO4BI/dbtRgjqWYg0BCC1B63KuaZEPgIgDDb7TxCGn+qGC/cnbTnHUPQZPnILEVgL7CM/HVjsl18WFqShWpkoecr2vAqtkKg2j1oPPZ7rwYivXAQaBhBxsJP2pmlBJIz0gMjCgPywNZNho7Ld54k1eVkjhdMkiQzFODbAcY7rUT+5t1l03xEl7CdZUSQdxZVwim43FMkmvnuCbbQlBpOkF2IQnTK6Et8wkuGDDwK4pvgaDeVZo7foSRdybyBBd2lZJ+whYgvkHegieRTvGAO29UxsoT5rYcZ3E3Qlk/Vs/Oztmc74wkcSsyHMfEsCG2AhRjQO+KbExge2EAbykrrFqJQ0wgylpM80z7DNk5k4hMBvAjAnMn+lWagj5h/IQT6BmeofaBLVcyzICAPdalcjxOJJUW9v27JjGx5pNliGRPJO8tzVYx7lKky0K1BW1401jd9MKqXHPb/+9y9ZzxHP5tHnhwOA+HQescjamsNrBK6s2qQNmz14tevTtMJMl4Cc3luooyOLme4MicW07ZVq2JbR0fHto30521eE3b38ZIfFogtGTTWK78TJNk8ULNpGY+84Ic5vFQ26VuuMS8fSBQe9YpHo/SS5QUmUD2bCGcD8HrMuQzGjzXGDY0+ltCSBAlr8ZK2+QECrlK0/6BgbclgYn1OUf7fYp2cOUiztbHdsDDH0dkALxesLR9M5Fqq9VLKMV8DprOJ+Gxm6G4xnFCecQtr9M2SnvtVYDYnMTStCCJxSDvmp5nxOSVwCfdxBUtLM/KeO0fO5nkHx2pkqb3g76vk15vQMAHLhR5bXqJ1eW8mgtFK2tmvEviDwVib0EqP/Q/xoadm9T8bpp9pRxAJZqpsXgHCR5WAJdxBcV5SpMLfleQnETqAD39Bxa4sY8IyAvbxa28S/R0MLCddLLeovz9EP7uYPuiZI/e1Z5avBeHMRviU7yia4GXFjsJjYfmblgSpkcQ2vwXg3SrAEuNG3RhaspE2DqvIq8jM4QWHVO3q2J0lzJ5i2xm0XBO1M/ih/ZBGO2zK70gvUck/SBlR5RNUN2zc+p22BJFAJcvmDURQav8T5tCd2vhs4qUY2Q17jttFdCH/TxCWa1Wte6Bj/QYXepOKJofnn0Qx8d16u1JB+RvPDhN9qqTnvhi0j2lNkNHHrR+BcJoKsAz+askofFhF1qtMejhzmNAgP6ZKsvyXVzt19QhyR3B5pVLpfnLGX/5aV34Cga7yvCMEafI8TJibEUrhhdHOadoTpItfOkM42+4EFKuOiS6z9FxDpvmmhufNYy22lGQhJbCX0q/EixDhaQjqFkIsH5xR2OjGRLKcWUVErdOHQNAiqyP3Ezc5TCY77QkiwenkubM0R5ckeakSsISPWnr+y0qyAQmlyodlmCRZarthMwMyu6cZwlMkuFtUteUTVSeMKaXt7DIGXxtaLF4MMx7XDbxy55IjL2bGdCKCjCIxe2jewVpMu5OAwxUBfY9l5L+tKBuomPz4plF1qXykAEilzsyr/63M8p1FX16c+cjAzka6hufPFZqQPZk9lQl5DUhJj/kyK1EI5C4fEWQnxOewuaBq4y6Q2hdfAt5WNPI3KC1aSEKd5fnZGImlPHJn6QjJjTS7BUzLY0Z1+Wbqt1JlU+L0hhD9eTdNsPQ4jgniLhIRZLdlSNvmSxiQxY0KhYhcZcaZpUThdu+rGZxmZzk7XyOxFCMv+OH9y96Ak5i+UQnoLhIRZJyVSA2Zr0GsRpL6/yITbWOIs0p64V7fixqggdllc0FMbh2PkMUI0HR7mCJYxvah+Rv32+i5fk8mGhFkguVOVbKLIPjHSr8GogEG3tqo+iClmHYS6ipnDhekLa0dK0aAdVFuA2m0vBCLrI5+XztaEUEmWbRkOSuL7W5UW1cqAFjc6mc3Rr9byANrkixxtdzaUyqI71YRQeqsfdLOLiP1rcw/aDoWD1D+L+3wkxpt8jd6Z6FYO8TsMsYNlpE/1KXOLuIRQRTQSzuZDzLTVxVEIQvo4o44e/Ne/ZaKfKvIpO3skQI89p1Fa5W4/MZRZRy+JZGX29GeroggirClnMxnwHSZkjjRXcNx+5ynacM/leRbTChlZ1/E/yFLW/9GiOmMYiK3yivEbZ2816S96qXK5pWgWmcWleuHlp4/F4SqinCryiRt8ygNvJRHdsPa7iLgg0Ujf7XXwCOCuEQuaZvfJuBdimo9lpGXL8RT4kqVM5eC6LPtlAwDV5eMvOfDWxFBPKx2umx+nwnnqKj6XSAVH42SaU+C8KqSUTjDK0YRQTwgN/cvcxM7DtBvBuFUFXVmXF5K5GW3x7a+kk7mE8QU+JmLUEEhutfScyd59RERxCNyXTx/f+GIWwC8RslEEyqAleJyIZS2M29n0HddqLSC6HWWkb/AayARQbwiJ08k7sgeQHGWJFE6ZkrAu4tG/js+XDZVNenMP4lYrGlqEG6d+6zJigjiFvDd5EeraW9hYIGKKQbOKxn576vItorMTjtZcsOh3X4zu/RcdotpuyXrNr+GyHfa8/9bY7EKhANVHDLj9FIif4eKbLNk0jz/hcIRsvuKJEXbfmVnwSeVOrwXkkYECegXmHbmncCsyQ9SKi1Ih0E4pdWm5o4UNVKNFDxFiho1/dmZAzQw5HWZI4J4RW4cvdFG2bcpncUgbCXGG4tG/jcBhuDa1OgZEnkyUd4pwjtD4jqyABQId1t6/hQ/liKC+EFvHN1U2TwLpNwo+29Vxhv91Ap5Cb92ZFerLmWuVfSGeWTXS3gB6vD7LKPwDT8GI4L4QW8C3aRtXkBAj4ppOcJBVMWiLTP6/6Yi71Wm1iElFltKHHKHFK8BhqBHqB5ZNB7z1Q0/IkgICyNNJm3zYgK+pmj+IaE7i4Ju8V9rSBfjpeDQG9IpptlAMaK7LD33Rr8eI4L4RXAS/bRjfooZn1d0cT/0madatHaHovy4YnOGFxxSjY08PoXc/9dPmKHrksanTDYISTWAiCCqSHmUS5Wz/wvij6uoE+FHRT3/JhXZnWVky6JYPLYUI49PYXY4FARaUUVlhYaYLAA8y22sDZEP6O4hY40I0oAVS1Wy10Dwe1VcybnqJSP/tnqytelWFbGMRx6fVLaW65mc6O8VHnmfWlEy8n+UQinbXAHgnV4Nhq0X1N2j5Qgix7EZSHRRuTqHNOoC8xyQ9jRp/AzAzwiBUskorA0b4DDsp+zMSoDeoWj725aRf8/usrVhohVnGY3sPoU5TFTOBlwh7xZFI/fnneNI2ZlrAFIiu2KuQYuNi51XJ029g8hRazvKxonQ+EQwTgThEIVEhkD4PTP9QQOvavZ3BIV4R0T4+HjSHryJiN6ipMO40krkP1ab3V6JLRt9fJqtpOtNaAjgFQy+oWT0/2E8E24eF72F4E9LHncuGfkT/FnZVbspBEnamaM1aEuZ+DSw738Jb2ahfa/Usf6eIIEJw9YL+AX7DFUSNxHjZCX74Tdo+xcBK0B8S1EvPDRZTGnHvESW7SvF3RyhrZaRD3yefUMJ8m9iQDY0C/qi60VVXOa2O3nQUdSz17XjsLSIx24CcFw92ZD+/iwDK7jKdw7OKPxCxUfaNj/A6rMdVUwGLbPeMvJKxaJuHTeMIMmyeTkRLnEboEv5jQS+rGgUrnep11Bx+dEOmiZJclRDHBO2MWglVXiNNSP/Mzc+k3ZGzipZrqgjx73NU5QNRoz4UksvqDXT8OCxIQRJ2+bXGLjYQ3zeVIi+ZOm5T3hTDk/reTzvOUZVO5kFTibUHrMU+v96jEfO/CD6gahgzWBHztMZjmQ5ew4Rq5XmM0oaxElVxA4nYon9fI+RK6uFMTBnd+ehEyRlm3LXqTH/Uu6cHeEOS8+frox2SIJyI+Jftn4yERaC8HowUiG5kmafYg23UYXWWInnrwb1yZnqnq5k2TyNCLcqdV8kbGeHFpZmjoxm7hzKHKTFtM8C/HZPzuspMf8EGl9p6f2/rifq9++hEiRlm7IvVJgz9+rmbxn5UHOcKICuYfNkoeHk2ni3UEnBTwJ0NzOvjhn7rR6ghzyXdo/lMjLjHLJjvdJwUaHRyYPxPe9SaSf7amZeDMJisEIj8LqriX6ArrSM3Mr6osFIhPbjSdmmfNZ9dTBh+rKy1jLyx/iyoKgsfxCCcTIRnxUqKQhPMWMNMVYP/au85pn9//oPxRDritXGPzDk3MZkXWEpwDjLSuTlseMJry42DxU2n81EryLgeCW7/xHaAcb9INyP4eot1t6PPeVS35d4KARJO9kvMteeQ1viIlB30ciF0vgs6WRfoQEnM/htoZJiVyT/CCEWWx3BzkAfGZkAedJxrsrCye6LJaOgVLU8Zu8gPnJf2y4fD42OBfNBAA6qDSxi7AfGABM2a8AAMw1oMX5g4IHZ9+EE74+KKnlMJhM4QVKVzCkQ5KvlvN+kxtMnjc4sxnPymdr31WlnX6yRWFg7ZBTq49OkoT5AFWdxceaGXUajeU1u5L0BPwbohSo2iPhDRb1wlYpsO8sET5CyeS8Ir2s1UAj8+6Le+TKvL661TuhUPTV0UjAskOKLPPM98SF98RP7PvqMH7zTnHkuOyQHBqkNMWW6zEo0ZtKvn7yC0A2UIO7maQQRvksbhI9bev4KVS05WRaadmbopACeIMYK26CerZQbTJXNL4HwMZU4ien2ff6CxbkFOVtFfneZWrmPo9+t2t9rKnWKVMErUIKkbPNB5X+FVKILXmaTrYvDn6L+Zycy/fyhQ18Qj8fODZsUBPqrYLFCGMZ1W+iRJ3ePJ2VnvwHwRSoQqFYAj2cr5Zg/BmORih9ZwGgZ+SWKslNCLDCCtPzdY3S5xnuxrJV/6NoFYZMCwGMgrNDi1ZsG6LFivV+QmwpgBq4tGXnVpto11yk78wOAFteLY/Tvt1pG/kxF2SkjFhhBUnbmRoDObgNkNlpG/uAD2Uw6ldqQy7BftHOyILCq8x2DVNjoFp+UbcotVKXmywy6qmTkPqTiI21nrx2Zs65wMd9jGMOnbaSNwwrSU0okEIKM9qn9e9sgQ7DC3H1ixqNE1KPpfI/fcWxZzhrbKvwjMF6vgq884ltK5D89mWzSzn6FwEpEAtGvRdw+Lejz8iq5tIJMIARp06bGQeP/JwDXCV3rHaT1uSCNH8CH7+c4lR+pfmRj5k+WEoX/Hfedo5y9FMRKMz5kx5W4iJ22uWPd40Hm0062AiFI0jZ7VRevncCpF6vcOhagmzRd6y3Sel/tZer5kqcJ4VR+xOD/ric78ne62DJy1+wsmxrOfhgaf1lJn7GJiE7d/UShku4UEgqEIKmyuUHxNOBUgO4hEO5gFr0TnbwLK8natjPFZI1UVsUHA0tKRl6eH0fazi5j1Wm9hKcZOK2k53+p4mcqywRDENuUL29Tq23lrqv+ABPdo0H01jt5F/aPRR46IyZZK3WAki/msxkaqc97R4U0nFqM53+qZH+KC/kmSCfPnaU5+h77+O2OGxF+weBeBvW22r+kScc8jmRBYRjdTJgXW4nCD9t9/YKK3zdB5OwIAtqy08geIBIeJKAXoN5iPNcLgggK6KDtjJbTy8etjqBsN+IAUlCxNsrOtCcIEf1+5E6h9e4VL/duoA2y5U1bXOly9i1MHEgBJog+Yum5r7RF4g0M0jdBns8LZsed6mADYw7C1TARvsPEvU5M691Kue1BGG2GjUC22Ik+Z+k5pa3fZuTYTJ++CSKDT9mZCkBtNIWICpaRM5sJfJC+U3bmIoA8tfmXDbaLRv4DQcYzlWwFQ5CyuUl5V6UV0CO+x9ILC1shlKBiSDnmx8D4kkt7vibAuvTVluLBEKT1q3h3WRwvhX2tvrryGwlT7FYCDleJlcGrSkZBqcZLxd5UlQmEIMly5uNENG5pQ4sCt5ZAPUU919PKO1Wq2CWHzAMRgyTHi1V1anLM11uJgmq/YFemp4pwIATp4vlzhSP+0p6g8MMA9eyrU0+OvB06ambes5895PnxhHErA6/yFgd90zJyrdyM2ltaAWkFQpDai7qTWQOmkwKKq1lm1stW/6TP7PE7yKYRCczi7H8ZFb6VGf7epxhXWIm80gyTRuTVSj6CI4idfS/AuxTHtVKiHmLpJ+KeoX9Wep5+7gbZ36u1LkYsXTElOQJpjkeETxf1vOo0rNbCIsRoAiNI7XuIXf1dW+1mqQLLkOXePdqw1jOwz/qnVdXClAvjgBoLfLDUkb86zLjbzXZgBBl5zDI/AsaV7QaCy3g3ygYLVcPpbtYhopRtyl5UFyjG/djoJLFDVeS99LpSsduuMsEShI+eSc6O3zIQSiv6lgOZaABCrNAN6t5E+VIj4nM54ekJgvZG6Eyo8Gpm1W6JfLaVKMju89P+CpQgEs20nb2Qwd9pOWRDPmYLxiBr6KF4rMeidZvDyD9VNq8A4aNKtglbiHHq2AQu2QGSwKvBSr2SZYX8qVY813INAJVyD1AocILUHrXs7HdD6+ztIfmxtjgH/stMOgYvAbQlYO7yYEpV5Sli6qmIas+WGf1/U1WaTC7lZC8Fqx2VBWEbQZxe1Pt7d7aZdOafRBCSJCrrvr12olDP/V8Q8berDRWgPOWWtjO/Y5Di8VBPLlSV/mgZ+aN3F57F2U6jwhcwQ/Z5Ujt8pOpxZznCMxBYoTF6Bjrynr4VuSwjGdIE3jzQkV89Xrjpyvw3sxCrlFIhDGpMpw4Yud8qyU9BodAIUruTOOZ2MPZqGm4E24gP7VOvXc3I9NjKecTy7gLZUDms61km6oHQVpQS6/IqTlJ29n0Af11FFoBg5jNKiYI8JzLhla5k386Cv6tkk/F4FTh1SyK/Tkl+igmFSpAaSWxTPmKE+aObcEmErs1322Fk9tC8g7U4namxtoTBLwhxveVU2R6NsWIgUXh0PD9JO7NEdqZXjYGZzi0lcjeqyLurAOaHhY5TvfT1UomllWVCJ4hMPlk2f0qkONk1ALQIWFctO/8z+JwNW/2Yq821qNQG4Mg7i9JIAE/+CDa4Npe8Z6yLSLKSPYeE4viz2piO/zRoUI0h6WQ+TqxcQ/eg0J1Tm7W1rZpT0HINIUiNJHbmVoLijHAfWRLoXUUjd60PE+OqdpbnZzWNT8bIY9hhQdvfyZ4gkJxXrj4JWOAiqyP/LS8xpR3z88z4lJIu4T5snXmalVq7Q0l+Cgg1jCCjJJETU+XC7/HS7BtLws+YxSca0Yqni+cdUa3QycTa2wDO+I7dhwES/KFih785HWnH/Bqz4pBVxh1WovmzH31A5kq1oQQZi2x0tHAgRJHnGjTWVhUTObWdGVfw1BeuzX4nWsiMt6r2q6pvVU1isg6Kahb+I5WyTdk/650qegR8v2jkz1ORbXeZphBkDLSUY74WAq8F4bUAjnQB5noQrxLx2Cq3L+EufLgW7bKzx47OKDw99GoC4ks11tYMGLnfuQ50HIXROSHfA6DUwX0qHjobD8emEmTngORWK5crR0HjLjDNIeIuAXQRaCNYbCLCxmoVsjv6xsEZ7rukB/EjcmNjZHahWMhMbwBwhBtdl7IPEmONIKwuGfk/utTdRbw2aapC31NtlA3ir1h64SOefPLx8RSsfbWyvm9Vq+yrEemIG5uL9EggI+U8xTSOUssQJKiEWtFOl5M5XgiqzUoP+c7yS2ZeEwOvHkj0P+IFiySbB2oVfI9Z8QCWi3FstfHSAq8B4TWTvocyD4BoMxi/Io3ubebX/IggXn5FPnTkYyUB8p3lZADzfJiqp/qAHKYqiFYPJtx1m+/k7HzNYfm4pbaZIvBRqyM/blPs5I7sAdDFYjAtVj0vv0dijEEi3E8CN09UIVAPDK9/jwjiFbkA9FK2KStm5ct9uBfhIa7iVg28uthRkOXvda/a+xRqJFEiMQHvLhr5fxepzhlecEhFq8oZJJIY+9R1qCrAuIU1+mZJz/1KVcWPXEQQP+j50HV5psOHpz1U/wDw9yq6vvpJevSvkxlOO9lXsyQJI60SAAFvKxr5G9K2+S4G5LvJwSp6HmVkH4GLwu4jEBHE4+r4UUs75tXMeL8fG4HoMj8M0q5jHXeWKPfEeDZTlewiYpbvJKp3gZUAzg8kvnpGCD+lIX5bce9CaNPNIoLUW4SA/54sm58nUvxyDWyA4A8iVpujKHfDwrzWE/FKLc43b6Z+a2dHyUr2bEkSMFqxe+ZTXMUxpRn5TWGAExEkDFQnsOmq9olRElRdNGg89vsxc6lydhGBlzH57GJSL2fGY9BwXTWuXz82otrVAJ569kP4OxMdV9JzDwRtOiJI0IhOYC/lruvLP0WVFw3OKPRNFF6ybJ5GoGUgPjHMFOQ8dxCvjNtYWTFoMTO3bAd45lhW9RiBKmYRQVSR8iGXsrPnA3ydogmHBE4rdqhPeEqWM28iIjnSWVYkhHcxNgO8EkSt2Qlefj8xxIsseuypoECICBIUkhPYSVeyZ7BguZ2r9PxOTGcWEznPMz9GZ4ZIsrw65NRa0zzRvZaeC6yBYUSQEJc5PWy+njVIcuyt5obOt4yc2kk/BYOpsnkmEy0j8AkK4lNJ5CLL8Fb+vzsIEUFC+ll0OplXaYJ+CFJstQN+r2UUvhlSOEhVMm8lQcu89/ANK7Iw7FLB1qsvfor6n/VrPSKIXwTH0a9NogXJQZhKzdrA+LiVyF8RQijjmkyWs+cQ1Q5kvbJRPhvtJ6ijABFBAl652jFdB/IdQql8nxmXlxL5zwQchrK5tG2ex7VDbPxyZaV2ECQUje1DCzbut3Gbn3AjgvhBbzdd2UpId1ge3HqFilkGXVUycrJeqSWu0XmH8s7y0pYIyG8QQiyyOvp9Nb+LCOJ3EUb1Z/MRe8Xsyu2q3yUYvLxkFC4MyH3gZuTWtBwL7XooT+CReDfI4K+WjMKHvVuAUoc9P/anjW7ayd7GzG9SSZiAG4tG/lwV2VaQSdrmBQTIreNjWiEeFzFssIy82nvgBEajO4gLtCcSTdrm9whQO6Pd5k0PUrbJAUDWMBNVxuF+mt5FBPG5VEnb/DYB71IyQ3zPzHjl1A20oawk32JCtWPRjhNKY+6wUiUWbykm+m/zaj8iiFfkZNfIsnklqHbuoe5FhF9QXDt9gFpjAE/dgMcRSDuZlzLTg150m6XDwPtLRl61deseYUYE8bhyqXLmsyC6VEWdgN+xHntzWGMRVGIIQma0jMVzGUwQMbi2wfiylcirjYwYx3hEENeIA+nhzIdYI6WqVmasIyP+Fou8JSRrAAAKbUlEQVQeLXhw1VIqadv8AANXtVRQdYPhH1hG4Zy6YhMIRARxiZyrhtKMx5n4zJJRWOvSTUuJpyvm67laK60/paUCUwiGgb6SkfdcixYRRAHkMZFU2TwLBFlCUv9iWELw4sEZhV/UF249ic5KdqFW5WUgLGq96NQj8rulHhFEEevRyly5G9KhoPKMEDhncIIhNgr6TRFJOpkTNdDSoEZLNyWJ3Z0yfclK5D7hNZaIIArIJZ3sK4n5DgDPVRAfJqbzmtUrWCG+XURkny5Zi0XMb3ar2yby77GM/Le9xhoRpA5yaTt7JIN/DOBAFZAJ/I6iUbheRbZZMumh7Ks5VqvmPaNZMTTMr6BFVof3YaQRQSZZKdn8rKpVZbFbVmlBfczpULLvQyg9NO8EjmmSFGf5MNN2qrqD1Ka9vI/ojggywZLPfvaQ58cT+t3Kg0gnab/ZrF9V51DmVVqNFLy4WTE02e9vLCPvqzK5JQkiW/GX0dHlDFfmMHjTlrv6n8AZqDYK7IP4oI6yM3O18lFV5s9aicLnGhXfZH5qXeWZ5clBz3v/rZBHEDEQ4dNFPf95P7aaTpD9ee7eM2zjRB5pX/MiAHMAzNotqSqBNglgEwGb5DgERvyWoFu8jPlMOdmfgBX3/H3ukvhZvP/Em3kZszx7rlgw6ccp0V3EfBIDuh8zjdBlwqtKev6Xfnw1jSC1KVNEp4BrrWoSHpIQAG6BRrdY8dydHvTHVUnZ2R+oPpIQ8PWikW9KC9G0bb6EZV8s8NuDyn1CO4Q7idBTjI+0Iko55kfBaNgRYS/5yfKeopE/1ovuzjoNJ0iQ49d2SmQtCLfOjDtf91Mpm7Qz19aasSlccjxz0cgpySqYUxLpsrMvFmDpM/zet4Q7BFHPYDy3Zvfg5F2/o6L3g9GpFHgThMYaaft13TCCpCrmmRC1yle1mRPeMvtZTI9duJnWPe5WPVXOfBlESqfPGjmjL2nPO4agSVJc4DYnt/JEdLuA6CnphXvr6abKmUtbtoEc8H+WkZdDenxfDSGIq/olvykRtosKnzJZ287dXaQd89PMUHrJZqLb9ovj7DDb7idt8ygNskWPi1HQHnGTQ1CJqMfS8/e7MiFHqDlb5PO9r10iVz4VhWUlQCmRlx92fV+hEyRdznyBiT7pO1KXBlTnpSdt8/0EXK1knvDTeDx+7hP06DNK8i6E5AdJ+fg0erQ13HVh3EoadfsdbTZafnO3izQbIdpjGXn1GfN1Igp1IVKOed/oS3gjgNnDhxxuWUzk5aizca+Ubcqxx3L8cd2Lwb2abpwX5JDJrvK8IwTVHp/kf0qtSesGOpEA42bStO6ivr7Xs41xFFNl8woQPJ+3CDIWgB+2jIJSuyVVv6ERJGVnvwHwRaqBhCXHjC+UEvlLdrefLmfPYOJbFP3+Brp4u0X9/YryE4rNLpsLYiPtQOW3ipC3SvkmjdAzoE/cJd5vPlI/7Zi3t0SB43B1lrV3cI2rZW6hEKSh7xwKKyyqfMLO7yRJZ/5JxEJuWWr11flhBp3vZ8RykheY5FQuxMgOmZct7fphjkrI8m6Q9t1ifH0fCHIrvCFX0jZ7CTi+Ic7Gc0LiFZbe/+ug/QdOkLQ9/4UM8TMAzws6WM/2CEOWnp8p9VPOvJeDNbl1+RwFe4+BxPlegE/xvHnkaBfyyOPTDAVfnkUYuIEIN1oPz+zDMWsdz4Z8KibLmU8Q0Rd9mnGlTuDfQ8fCIoUzhi1wgqTszEqA3uEqy0YIE92lieolQtPWgJFScLkZhPMtPS/JrnR1DZuHVjW6UD4+AdhLScmzEF3PJG7eK17p8/Ptx7P7CRRHuzMG1qF+8vjom5aRe2/QOexsL1CCdA5ljtdiFOhLYMDJy3eI+mONCU+B+HwrXrirnv9axS9VLsTIABuVu1I9k5P9faUmcDsS+/YO0ENDfgyFqZscMo8jDZ8C4XVh+CFgHUDfKhq5a8OwHxpBkk521RQ4ePMv0uj8YnziITazh+YdHNO0C5kgt2VVp796XcsVpPGddkzr20q57V6NNEMv7WQ+yExyoyaYcdCMJ6Dhm4jP/JZFa3c0IqfA7iCdw9mFmsarGxF0iD4Egd853oGn5JB5IGl0Iaj2+LRfiDFAlrEwY/WwYfc+TRv+GaavsG3Lymi7utfpVBVvYsLpHvztAON+EO6v6LHbnqR1WzzY8KwSGEFSduYagEJ9HvScpaIiAe8uGvnvjImndiyYQ7HKhazRMrDScVtFT3uICQa6wbhPH4r3PbFv8B8ivQYWpF4XH5au2tqxBDqWCS8m8H4AyX9s5H8GGANM2KwBA8w0oMX4gYEHZt+HE/oqQcbhxlZwBHHMUisXr9UDhYg/VNQLV3XtOCxdjcUuJA2SFLuX3dcz4+bvFWjo1sA/5xj6wtqFcRNQJLsnAoEQpN0fr4hwCQsyoLEkxewQfyg2A9dpTH0Vu9y35TmPPxmir8h0AAgEQpCUbcpeUe151pkg73zJALCcyMQwgW5gjXudGMkX7cEQfUWmA0YgKIKsAzA/4Nja2ZzcYbmJmfriRrV3M/Vb7ZzMdI49KIL8Q33U8ZSFezu4Vjrey5VYnzVzXVuNCZiyq+IzMd8EqZ0uc3RJkOl4yS3YOwjcJ3TqLVF+03QEYSrn7JsgnTw/qzli/VQGaZfcCNuIcReD+ipVp+/JGX/567TJfRom6psg7ThUxfU6E54G0z3yRTtW0foGOtZvcG0jUmhLBHwTJMnZA8jhqfdoIeuxGD+TdwoS1T6rw/9ZkLb8hUzzoH0TBPyWWMpZ17QvnQGv31Zm7tOIegXH+sLquxVwzJG5EBHwTxB5xsI25d5+mB/YwoOA8HcC9TGLPqFrvYOUmz7vU+GhOmUsB0UQOUHpqDZCZRsYfSDq1bjaN5Dof6SNYo9CbSACgRAk7ZhXM6MpHQa9YcXfsIzC+7zpRlrTCYFACNJlZ48V4N+0C3DEdEa7DLhpF0ynapyBEESCk7LNPwEItOVKKKAzNhjG0OEbaeNwKPYjo1MKgeAI0tqtKHdatPDPMU+pX8g0TyYwgsh2mQT+HUDhNkDzuWAMPqbdxzL7hCBSd4FAYASRPtO2+TUGLnbhv6GizejI3tAEI2eBIxAoQWTbGxHDb8Hhntn2ikJ09/CK3PTVC5QgEsZk2bxcntBrOUiZv2IlCnL8QnRFCCgjEDhBjuaj9ZKz4+cAXqEcRdiChPssPS9HvEVXhIArBAIniPR+IJtJp4J1YOzvKppwhLdoLF4XfS0PB9ypbjUUgkjQRlv7P9xsAKOPgs1egfb2HxpBJCwpJ/MyMAXecVsV8ogcqkhFchMhECpBpNPRE4d/RuizMHZNMSJH9KMPAoHQCbITSW5tROcTBvq4ype5mVEYBJCRjamJQEMIMkaSmMMXhzqYkvkyK1G4dGouVZRVMxBoGEHGkkvamaM1aEuDJIr8Qi4guqMSkmb8hKa2z4YTZBeiEC1kxmsBHOcaZsIgMf0kIoZr5CIFFwg0jSA7x9jJc2eRbZwI4qMA7iJQF5jngKgLwLax/xiy5Q7/Qgj0Re8YLlY5EvWMwP8DV/cxqlvOKj4AAAAASUVORK5CYII=;" parent="1" vertex="1">
          <mxGeometry x="210" y="35" width="40" height="40" as="geometry" />
        </mxCell>
        <mxCell id="MhH44BmzcimzEkGrFkP5-8" value="" style="shape=image;imageAspect=0;aspect=fixed;verticalLabelPosition=bottom;verticalAlign=top;image=data:image/png,iVBORw0KGgoAAAANSUhEUgAAAMgAAADICAYAAACtWK6eAAAAAXNSR0IArs4c6QAAIABJREFUeF7tXXmYHFW1/53qruoJ4P5QlunqBJh09xC2kCcuiPBcAhFkUQFBEIFkUEEU3EUFUZ/igiIimRkQEMMSILKYsD1nEMWFRYGQ7s6EZLp6CGgQUUIyXd19z/tuzwyGYWb61tbLTN3vy5c/5mz3d+vXVXXr3HMITTAGdsKOFcNYyMTziakdgPwXH/1/CEABwBATDxHTIxHbvqvjGWxqgtDDEKY5AtSo+WVMfX8iOoyZ3kPgg5zGwaDfEvE9zLwqbZUedqofyocIqCBQd4JIYmjQljB4iUqAKjIE6hYQ3SFRVNAKZZwgUDeCDJhGpwCd7Scxxk9UEkUD/7jDstc4ASGUDRGYDIG6EGSEHLiRgT2DXgoCntCAY0OSBI30zLAfOEEkOcrAXwnQ6wUpA6UosG9IknohPn39BEqQTCL6NmLt942Cj0m8PZ0vP9Ao/6Hf1kcgMIJk2429oeHRhkMksE9qyH6s4XGEAbQkAoEQZDCx3c7DXF4N4PVNgMpzbRSdNzu/5ekmiCUMocUQ8J0gD+0PfYdNsd8AfGDzYEG/27xj8X8WPIxS88QURtIKCPhOkGzcuBCE85pw8helLPsLTRhXGFITI+ArQda0xzo0jf8E4HXNOWdxYMoqN2zToDkxCaOaCgFfCZI19R8BdHYTQ35byrKPbOL4wtCaDAHfCDKQ0OdXmP4MINJkc3x5OMSnpfKlK5s6xjC4pkHAN4LkTOPrDJzfNDObJBBirEgW7GOaPc4wvuZAwDeCZE3jLwD2bY5pTRnF8Ou32ju+cRM2t0CsYYgNRsAXgjzRrh8Q0eiPDZ6LsntBdHhnvvhrZYVQcMYi4AtBsqZ+MUCfbh0U6fKUVfx468QbRtooBHwhSMY0HiZgfqMm4dQvA4+kLXt/p3qh/MxDwCeC6M8Q6E2tAh+D/5a2Sju1SrxhnI1DwDNBGIjkTKPcuCm485y07CgBFXfaodZMQcAzQZ7crc0slUW+1QDTo1pi9/XDVqvFHcZbXwQ8EySTiL6VWGu5MxdM4m3pfPkP9YU79NZqCHgmiDwxWAGeaLWJR4jnd+RL8ttNOEIEJkXAO0H2wKsrtvGvVsM4Wo6Ye2zcKutthSNEIDiCSMtZs0qQV7cSzpvL9vYLNmJLK8Ucxlp/BDzfQWTIOdNYXY+KJT7Ck09Z9mwf7YWmpikC/hAkYVzHjONbCKNrU5Z9UgvFG4baIAR8IkjsMGZe2aA5OHbL4K60Vep2rBgqzDgEfCHI6HuILIrQKl+nb2dQd9oq3jHjVjycsCMEfCNIxtQvIdBZjrw3h/CtRNSdzBdb5g7YHLDNjCh8I0gu0VqPWRMtLxFWcIW6U0PFO2fG8oezrIWAbwQZfcxaDuCDtZy2yN9vZqbudKF4d4vEG4YZAAK+EiTTHj2YNK0vgDgbapKBmzTQ0qRVvLehgYTO646ArwSp3kUSxpVgfKzuM6mfwxtB2tJUfvg39XMZemoUAr4TJDdH34cr2r0A/1ejJlUvv0y4Pkra0o7B4f56+Qz91BcB3wkiw8+Y+mLZzKa+U2mwN8YyDWLp3EL5tw2OJHTvIwKBEETGl4vrP2GiM32MtZVMXVth0b1noXx/KwUdxvpKBAIjSJUkpn43g97TxMDLj5s7BxkfA9cQRHdY8jRIlIOzHShBqiRJGN9ixpeDm4I3y8z4CggGgC4KOBOAgKsEie7woJa3NaunduAEacA7SRHA1wCcAWCOCpga6Oy5VvGSbHy7XZjKXQB3BV6EgnFlhbl7z6GSLPYdjiZFoC4EGXknMY5jwucABFduh/CYxvSVuVbxjmxcXwBNWwnmHZWwJz49lS9dMSaba5+1K1OlC8RdAL1RyYZLIQL1gkV3slB60KWJUC0gBOpGkLH4M6a+hECyR7qfRPkXiJa1IXLhtp2kMrPbDiYhZI7VrFr4MbCFGad1Fuzrx8sO7DqrvaJVqncWEKkRrpbDSf4e9nx3CVxAanUnyLZE0UBHMCBf4mMu5/c4ActKUW3ZvEkqlGTM2OEEvl3FPoH/RtBOl3egyeTX7TIrXtYrXWCShAnyWw/LjOMoiaXT9ez86tnb76RXih2s0Vxi2pGBIRZiKEqRAmLFoY51kI/LDR0NI8jYrAdGzrQvBNNCEO8H5viUv9LM/Ux0H4ToTw+VlT7Q5eLG8Uy4ThHpJ0Ha4lR+uGbKjCx5VK6ILmZ0AXiDon3HYrJ+FxN1kyaWJjeUGt8Y1fEMgOo6F/UTAW1/EOYC3FHzeARzPwHLtVJpeccz2OTCrWeVhhNkohkM7IEYirH2MlfilSg9H0Hk+WEMP7/fIJ53O2NHHy8ZjxJ4sZN3gvVz2hLFipA7YZIsgTUvZUYZ4KVgWpoesh93i0e99NYmjLQATgTjRABujznLO8mviOiaeh9LaEqCBLV4a+Kxz2jEP1S0/0AEWNxh2WsU5V8Sy8xumw0hJFEkYYJsR2cTeKlMpOyw7KYqvZQzY+8G+ESW5AB0pxhOIX8DQVyatMq/89HmpKZmFEEkCtmE8VUwvqEI7t0ioi3p3DDsunJkNtE2BzxCFgCvVfTrRmxY3lk0oqVz83bGjQG/dDIJ/QfEdI5f9iayQ6Ae3lI8N/UsXgjWT5DWm9R21jS+C+DzKuExYwWEvTj9FP6hIj+VTM6M7SbPw4+S5TVe7U2mL3fkQLyUNG1pakMxF5Sf8Xb/MhuvnSWMywEcVxef8n1UaF3pp4prg/I34+4gY0DmErGfMvMnFIG9NqbZi+cMYlhRvqbYQDy2e6X6jaV6ZwmypthmYl4qhNYd5IUkK2wKxhVMeEvNyfsswEIcorph49T1jCVI9XHLNK4BoFj+J7imO9X22cRLQFWyvMrpIjqQ/zeApWVB3fOGiusc6E0pmm2PHQqNf15zV8ovhxPYIcZXkgX72367mNEEkWBm4sYtRDhaBVhm/kG6UPqsiqxbmcyusbnQxBIi+Z0FO7i1U0uPUN0RXApQd9Iqrq8lP9nfs+3G3tAgt9uD3IxQCi+Ick4zniCFdszaoum3qmYdE3BB0rLr0s03OyeWZCGWyI+SBGyvdJW4E3qOgW5o2tL04PCgExNZ02iuOgRMR6YKxduczGEq2RlPEAnOwE7YsWIYtwJ4qxKwRJ9P5YvfU5L1SSg320gJ5jGybOeT2YkeVp5l4u5KRFs6WXbCmNJaU+8SIPlS3kzjyTaKvmPblCMvwYUEGUVvdDtWkmQvFUAF8yc7C6XLVGT9lnk8YaR1SRZUH8Nq5pm59s+8CaClERFZ2vHU1qFt7axrj+1R1ni1hzQh12HVUmTggrRPd/mQINugvS5uzCsTZN6W0hdfAn80aZXki37DxmrT6IziJbK0BRWI7OsoyUIcXZoqbNmYM43bGTg8KH8e7W5so+gCP+4iIUHGrcTAbP0tFaHdrpiIWGHCcem8fbPHBfVF/QnT2DPyH7K4TQBViSXwk5gqQUwl49ddJCTIBCivMWPv1kYygGv+IsvdII3p+I5C8S6vi+qn/pq4MS9CvIRHHsPkicmZNjZu1ew9veTvScBCgkxy2WTjxpEg/ErlqiJgCBAfrld+kEpM28pk2o295HcWQdXdMD/zopyGUl95H3a0QoJMsWTZhCGzUK9VXNVshfiEPZu876H8bsHyoySoiwhRxbm1pBgx/yDp8btVSJAaS58xdXk+XXUr8yFd0Am7DxUHWuGKqhb5E9oScDXlJdIKMTuJkYB1ScuW505cj5AgCtDl4rFzmPgHCqLg6iEf/US506Mi3ywya2fr+wp+iSxas8TlNQ7B2KuzYMvtaFcjJIgibDnT+JrcGVEUvz1i2B/pWAeZ+9RyYyCh71eRZBnJPG71a+TYlGXLr/2uRqtP3tWk3SplTeMioFqZpeYgwnVz8/ZJ8rhsTeEmFliT0Odr/yFLE0c6cWjyXEqyULzYbeAhQRwil03ELgPzx1XUGNSTtoqygsu0GBnTOJ+Ar7fSZJj44nS+5PrwVkgQF6udNY1fAPiIiqrXBVLxUS+ZViQIgOUpyz7WLUYhQVwgJ4tKVErG9WAcpaTOuDBVsGW1x5YeOdP4EgO+n7kIGJS7UpZ9qFsfIUFcIre6Ha+PaPoNBHq3kokGZAArxeVAKBPXTyEieTCqdQbTFalC8XS3AYcEcYscgNW7tZl6SdygfMyU+ROpQulnHlw2VHX05OCqhgbh0LnXnKyQIA4BHy8+kk2LGwDMUzFF4JOTVkm+w7TMGNvJIsjcrhbb9h1Xc9kp6CFBnCI2gXwurv+3IFpOQELFnBA4pnPIXqEi2yiZ0a/sXcRVUrTsV3ZmOjTtIZE0JIhPV2A20XYIWMgPUiolSIcJdESzdc2VSY2ymj1Rtbj4tEhq3F7Y28WHsNXtMocEcYvcBHprzdjhAnyTyik7ItqkkXh/x2Dpjz6G4NjUgGnsWR7phyJJEeQZEsexeVUg4I6kZR/hxU5IEC/oTfi45ahQ9gbBeL+XXCE34ct6uag+OlEXB3lk101wPuow6FNpq/gTLyZDgnhBbxLdXEI/nZl6FE0/DtKOTOWHNyjKuxKTFVJIiCVcbdsQaIUUV/EFoUQV3jf5lLdq+CFBgliZalG62NkA/0jFPAN/iNr2kX6X+K9jQTqVadZb5vaUZb/fq9OQIF4RnEI/Gzdkg9Bvqrhg8D0vlktHLdiILSryk8k8Ho/trlcPRFWrNAZW/9dLjPXQlc2ZpmqEpBpDSBBVpFzKZUzjfwn4ooo6MW5JFuwPqMhuKyNLFhELuR0rSRFkhUPBoF6NRS80OocZxzuNtU7yvtw9ZKwhQeqwYjlTv4RBZ6m4kn3V05b90Vqy9epuJRv2kEY9EYjejnzpERlXNh7rBfFptWJs1N/9uns0HUFkmy7YRnuZKU6aaGemeAT0HEP8k6D9swLxdNoqPdwo4L34zSaMK8H4mJINostS+eInx8u+1ExUoy7l7r1KDl8hVCTmXoqgd+5g6a/b/jVj6peQItndufaoxXxZqlB6BXZurTb0DlLNii3GFgJiIYgWAti91kQI8qMPPShIPMSE5Z0N/o5QK96xv/cB0Z1NYxmADynqXJSy7C/UsXf7VgL3MuOaVKH00EQxOnlcVJyjv2LM/alC6RA/jTaEIBlT31+DtoRlVXXVPuaTzJoI13OFrk4NFe/0E5ggbD25G15TLhvLGFikaD/oAm0vAtwbIb6hI1/+w1QxZRPGeWBcqBh3/cWYN6UKJd/72deVIC8Ro1r9z99BwFVC0y5wWp3c3yhqW8u1z9oVmljG4INqSwci8QIT96LCt6aHyvepeMjFY59h9d6OKiZ9lSHgiaRlKyWLOnVcN4Jk48aFIJznNECH8oPMfEG6ULrKoV5dxattDSq8jID59XBc7QVCfGWFtVWdVvFeJz5zpi6/uC9V1JHt3pKKsr6IEXB+0rJVi2k49lkXgmRN/UcAne04OpcKBHwnadlfcqkemFo2iVfRFmORICwi0CLF+r9u43mOwL8EaauS+aKrMxxZ05DHipVS8xl4mgQORQR7EUOePNzTbeCqekE0zBnvO3CCZE1D7jrV5Zdy28kRYUUybx+jCnZQcnIjojRsLIpodBiD3wdgl6B8AfQsgJvAWJXcvbiS+mVPdXdjTbtxtKbhRkCp+uLmMsRh80ZbM8s22JoQX2fgFHfea2rdBoiLUlb59zUlPQoESpCsaci6UEH23Ks5/ZRlBzrHyQLIJWKLhBCLiEi2dwuQFPx3MN3BGlbuULFXekntHpuL7HHOYFmxXqm5KBEtmugulTPb3sUkTiDGCaxQCLzmYgI5EF+UypeuVJD1RSSwiydr6vcC9C5fovRm5OGUZS/wZkJNW14QgiqLiEl+YQ6QFPJOwauIsfIF3V61YD3+pRZhbamR9g90C4Cda0sDxDg+WbDlicpJx5PtsQ5b4xOJ+Z0gOljF7piMbGlNwD2C6J5IqXhDciPkXbJuIxCC5Ezj2ww0zTsAjTSqlGkYvo+cGT0Q0BYxIL9+B0iKl4X+CCJ0gt890EdaJmAFA3uoAMXgJWmrpJq1XDUpe6nHKsbBEcIBIMyGwGyW/4+kyAyBuQCiIQaGNKL7N+aLdx8C94+KKvOYSsZ3gmTM2BEE9q2JotcJbqN/XMqy5TO157G6XX+zXn2ngNyurhcpxsVN9xcr2gn7jGuN5nZy8r2BWPwKjH1UbBDTuclC8Ycqsq0sEwBBjLsIeG8TgvLg05b9Nre/RvKMNip0VB1IIYteq5GOcKfN9gl7W/inF7wzu+INiBi3k2ITU6+VQrzEWm9dXwnisJ9Gvecq/X0xZdnfVXUsO8tC4LjAScGwoKG3THrPvMEXn8maxncAfEExzpvLO9gnzFsDW1H+ZWJyl61s63eo1veaTpUiVfDylyCm8YByK2WV6PyXyWOWvVcqhxcmM/2YGdstBj4pcFIA6xno1XXjij2e3Pz38fFk4vpPiOhMFQgIuCapkAE8ka2sacguWkeq+aHepFVcrCI7XWR8I0gL3D2qayZrOyXHvViOpH9UTg+cFIS1APVSRVuWHNr6VK2LyFEGMOjylFVUKqo95jcbN34Jwgm14hj9+40pyz5OUXbaiPlHENOQrcpObAFkBlOWPWcwsd3ORS7LQ0aBvmgTsAZMvUaEVswZHB50ik/WNOQWqlLxZSL+YTJfOlfFR9aMXT7a/6O2OOPOWMQ+es4ghmsLTy8JXwgi69RGNeMfLQSN+ouwu0k9LlsfGAJ3em3HtroThr7ZuIUB+RW+9mB8M1WwvzqVYC6uf5+JlIgE0O8jdvFov8/L155Ic0j4QpCWLGrsM/4M/EUjukJj7uuw7DV+mn/MxOsM1m9R/cjGwJfTlv2/E8XgsIXB4yWmo/cqFJ/0cz6tZMsXgmTjep/q4rUSOAqxPgjQMoqIvuQGb+VlavmqniaMVOQX7v+uJSv/roHOnmsVL9lWNpOIfZaYv6eiDyCvaXzU+BOFirrTRswfgpjGOpXTgNMEtT9oRCuEEH2TnbwLap6j2843M9Cp4oOIFyfzpV4pu9bUu4R6t97nBIujOwvl36r4mc4yfhFEvrxNq7KVL190up+Y79Q00Vfr5F3QF4s8dAamW4hgqvhiwolU3bxT7vde1oiOmpsv/lrF/nSX8UyQgZ2wY8UwXrGP3/LAEd1HzH3Eom9uk/2Sro1HDxKkycctlULZjpaCGSekC/Z1jpSmsbBngoz0jqCWrDQywbo+AEIfsdY31xruI0A069qvScQWaVxNSW/zK0YCdyWtUrdf9qaDHc8EGUjo8ystTBACHmSgDxr1RaLFvo51KLbKwmZNQ1ZI8SUBk4k+l84Xv98qc69XnJ4Jsn7O9m+yK6Vn6hWwT36GifhnGmt9r9la7HvjJmz2yW7dzayN66cIj30DCfhG0rJbqr1zvYD2TBAZaNY05NHOVupClE1ZdrpeIAftJ5OInUnMLsv8849SVukzQcfYqvZ9IUgmbuRVd1WaAijCnam8fVhTxOJTEFnTkNm/MgtYeRDTFUkPHWCVHbWwoC8EyTZ/Fu+4JXKe2Nfsayy/kbCovo/spRjr8pRlK+V4KdqblmK+ECRjGl8kYMLUhiZF7WEG96SsUk8z71SpYrdmTltCqwhJjjer6kg5Bq5KW7ZavWAnhqeRrC8EWdce26Os8UBL4kJ4lEA9pe2LPW4PHTVy3o/uvsMbjXLpxmpBBBeDmC9NFkpKleddmG95FV8IUn1RTxirwDi0lRGRJSxlFu7mcrHHayObeuCwekfsEG0zbgTB6/vUd1OWrdTDpB7zaiYfvhFkrRk7S4BflhzXTBN1EUuOiXqierGnYx1kfa+mGrJ3+dq4cSMT/CmOR/hqKm8rdcNqKiACDsY3gsjvIcVy6c8ttZulDq5M9+4pC7tn3hCeU1cLTjIbwAE1wXROZ6F4cXBRt55l3wgy8pgV+xyYL2o9GBxFPAhGbyRmdHes27zJkaZPwlkz1gPw6Urm5DFfrnYS61CRn+hIsoredJXxlSAbd8F2/44afwIQSCn6JlwEWeCslyna3ZnfInt5BD6ctHMDwSKN308MEoJWqlZLlBnA6bwtm/3M+OErQap3kbh+Boh+1oTIBnrMloFniNETrUR69ti4tRDE/LOmIUsWfV7FNoH/VtFw1FgHLlkBkklbCVaqlcxgOipVKDZjAUCV6fsm4ztBZGQ50/h5gJW9HU9+rDHmmsR2O0e4vJgBWbqm3bEhZQV6lsA9TFpPKj+8QVltCsGcaZzPgFK+lOwHwqQdk8oP921rMjs7digJXskKzVsZ2KxBOyppDf+fH/G3qo1ACFK9k5jGn1WPhwYM3iMpy95/vI/Vs7ffKcql0yGwGIqHj1zGKase9gpBPZ1DRVffipykkVR7OBJ9MJkvykeqV4wB0/hgBViuOJdnRo/dysfmGTkCI8goSWSW7PYNRNaOafZrapWrkee9y1rlZKLqnUUWUg5qvEDEPQTqnZu3MypOsmbsUwD/WEVWZgUIwrHpvC3PiUw6HGYAPykYR3UW7NUqMUw3mUAJMkoS+YgR5EU36ZpEgD2dVhjJJtrmEAtZblSSZbcAF3wr5GOYoN70kP34RH5ypr6YQU4OMJ2UsmxZn6zmyCViZ7JqBjDj0VhEO8pNXa+agTS5QOAEGSWJPN+s2tnVD8hWR2z7f7zWcpJ9LUoaH02AfG9RagngMngbRL0aiZ6xKiJO2p9Jn4J4cedogQbVGHKm8UVWz6F7IGLbR3nFVDW2ZpGrC0FGSSKT6VR7hLvHh/njqULpcvcGJtYcMI3OMtEiAi8GY67f9rexJ1iWJ3XQCVgQndmZL/7UTUzZhPFNML6iqHv35rJ9dCuk4SjOp6ZY3QgiI8mY+hICyVKfr3hprhlpDQEC38uML9WjFE+23dibNIw1zUl5jd2LPjOdm/bYp8NJk1VmrEgXGt/70QtmTnTrSpCxwHwmityRkWcbVHdmnOBTU1aW4SGiw4jxYdV6VTWNKgpMVUFR0cRLYrl4rJeJT1PRI+AXScs+WUW21WUaQpAx0NaYsfdo4PcAkP/2VQVTZt1KUmjAcqcv4ao+3Mitna0fUBHyMayaQBhoNoHsDw7Bq5JDJbmd7nnIPiHCNq5mQLGC+/Q7dDYRiA0lyLYBVUtramI+QbQLojjJD3nM7UQ0KIA8mAer/6LRwbSLKumeryCHBqq9C0mTbdoOB2Nvh+pOxGWpolUCvLIzX3rEieJ42aFd8YYXI1WSqBbK/n6qYH/Ojc8+ILrLLnhtSYu9NkritayxHi3rhQ6fWsq5iampCeLXhJrRzsDstoMrQshdPHluI7A7C4N+W+1+K7AyNWQ/5gaL9XPaErbgq6F4AMtJO7bR9tLvBiD/TfUeOgRApuv8jqDd1civ+U1zB3GzmK2oIx8rIyQOYyZJmGRwc6D7mXBblHml08fQAdPYswJcrbyZQvT5VL44YVHs1bu1mXpZyD7pslGP6nn58bDIslL3ENH1k2UIBIVjSJCgkFWwm0sYy5jxYQVRryJ/AOhGrmBl+qniWhVj8n1KCJIkUSMx8ydShdJLSaoD8djuFQ3nglkS4zUqPhVlbiCIS5NW+XeK8p7EQoJ4gs+9sqMzHe7dTKT5EBNdrTFWJq3i+qlM58y2dwFCvpPsqhKCAH+00ypdk43rHweRfDeZo6LnRqZaR2CH4plB1xEICeJmdTzqZE39YoA+7dGMd3XGo7LpTyRKt+6+ftiayGA2bhxJBEkStbsA40oQTvUeXG0LBPxaVOyPpp9CYN3NQoLUXgdfJZx8uWZgHUDnaGDZS/FwXwMZZ0xunQumKwmR61OFLfLszEtjIGGcKLhKkiasnknPiggt6NwwnA8Cn5AgQaA6iU2HuU9PE/ORyULpwTFz8tccQJcPVUymnjVjLQhXRHXjqrEW1Q4b8NQR1RFXxOKgZKF8v9+OQ4L4jegk9jJm7CxSr/rybxbiyPRQuX+y8NYkjKM1RheAhQFPYT0YVwotemUElROYuWkrwGuETtVjBKqYhQRRRcqDXDaunwqiKxRNlATR0Z0OOjxlEsYHwNxFIJmREOQoMHAlKZ5sDDKQSWwPUdneL7kRz/rlOySIX0hOYidrGscSsMzB8/txKct23fNjpGcIdwH0roCn1qzm70pZtm8FDEOCBLjMaxKx92nMsjrIq5XcMJ+aKpR+riSrIJSLG8cxVclyiIL4tBEhojOTLtP/x4MQEiSgy2KgPfrOsqZdR8DOKi6Y6Kx0vnipiqwbmbWzjQ8Lpi7VFBI3PppIJ4tZ9ptTObzgNaaQIF4RnEC/mgIPko0wlYq1AfhiyrJlSZ+6jJHTivJcDr+jLg4b4MSvowAhQXxevNFjuvIdQi19n3FhqmB/zecwlM2tMfWTNWiSLG9XVmoNwae2ava8/QbxvJdwQ4J4QW+cbrWUkCgvB/hAFbNM/MN0vnSuimw9ZDJx/RSi6onPt9bDX+A+mI70WvwuJIhPq/Tom7B9LGbIcjuK3yVoacoqnuGTe9/NZBP6qZDvLA6b8vgeiAeDxPyDZKH0WQ8mqkWNw+EDAlnTuAnABxRNXZuy7JMUZRsulkvop/MIWRY0PBgHARCwLmnZqu+BE1oOCeIA8MlEM6ZxNQFKZ7RbvehB1jTYB8jqZkIw9vJS9C4kiMelyiZil4H540pmCHdGdPuojnUoKsk3mVD1WHSkEkhh7gCn+qGUZcu7u6sREsQVbCNKWdOQvVDUzmQT3bd9pXhMvEka8LiZdiYRfSux9oAb3cbp0KdTVlGpdOtEMYYEcblyGdP4erWyiMIg4M+RcuSDQbVFUAjBF5GRNJZqq+lWGt9LWbZSy4iQID4tayYeO5dILauVgdWahg8lB+2sT+4bZiYXj31Gbk03LAB3jn+ZsuyPuFNV6BPh1vB01XNYUPrJKPi4PazSw62Mx9pE7H2VarYwjmi5eTD3pwol17lo4SOWgxXPxY3jmSBTSFTGRhbihPQU09KkAAAJ+0lEQVRQ+T4V4WaTySVihzHLREfIQ1qtPDxtqYcEUVz60cxcuRvSpqDyT0H0kc5Jmtgo6DdEJBOPLawe7/WrtXRDZvFypwx8J23ZX3IbSkgQBeRy8eg7mLQVAN6gID4M4ORG1QpWiO9lIqPlX2V6yQed6raCPDF/MlkoXeY21pAgNZBbO1vfVwj6FYCECsjM/LF0oXSVimyjZGQ5H4aQpDi2UTHUza/HfKyQIFOslCx+Via+jYBOlQX10qdDxb4XmWyi7RCCWMKM473YaTVdQdFdvLToDgkyyYo/uvsOb4yV7DuUG5FOUX6zURdVpj36TiJtCaha9nPGDWL8MVmwPWUmNyVBZCl+FGPtZa7EKRLNP5Yfto4FKvVa4Q2z0VYU+krVo6qyPXPasr9Rr/im8lPthw5N7j653vtvhnn4EgPhq6m8/U0vthpOkIE98OqKbSwE00IQ7wfmOIh23HZSBFRYtkAA5xkkC4TlI4Qb/C7xMuYzaxq3QXHP3+suiZfFG9PNJKJvA2vyO4VSwqRHn7cDkEURdI92AlfXWLxzbqH8Wy+OGkYQ2WVKAx3BI81zYi4mIYhwAwvckCrYt7rQn1AlGzd+qf5Iwj9OWaWGlBAdmK2/pSxIkuIUv+Y+hZ1bNaKeuaOliLKmIVM36nZE2M38ZHpP0rIPcKM77sfZqwln+j63XxtzLr9U3xgx7B97yZTNmrHLR0rm1B4E6k5aRSXZ2tbUJHLt+puZSFZWDLz2LRFWANSTzBdXjY9u9K6fA7CTWuT1lyLwR5NW6Rqvnut2BxkpQVPNfPW9gecYCAy+N8raGR2F4pNOgcnEje8RQfX02S9SderRl43rC0DynYJPdzonF/I3M1NPulC8q5ZuxjTOb94Ccvx/Kaskm/R4HnUhSMbUF8tfXM/RqhnYzEIcMVXZzvFmsgnjq2CovmTfVN7BPjHIsvtrEvp8qr5TsPxWEfRYroF65lrFe5w44oMRza035PO9p10iJz5VZYXAMZ1Dtvyw63kETpBcwvgWM77sOVKnBhT7pWfN2KcBvljFvCy33wb7pISFf6rIO5FZPVvfNyqqdwr52Bb0utxI0Lq9tjYbTb+RW+FNM2TfkKRV9O2HJdCFyJn63Rx8vdjJF4exKlWwZauzCUc2oZ8Gpl611eW+SCV6sp9NJmW/dRB3EVGXg9KkauGOk2LC9ZIUqfxwnysDk2FoGvJl3fV5Cz9jAePRVMFWK7ek6DgwguTi+k+Y6EzFOIITY3wrVbDPG+9A1swFcIOKY2b8kaJ0SmpDUb6Yehpr4sY8wggpAt8qZSzjiNaTHhyetEq8p8mMKufixs3NkOBIZXtHPwtXy+kFQpA6v3PUXGMW4pBt30mys2OHkuBfM6DVVsajQuNTvbRYXpsw0hXmMwhVUrjZ0q4Z5jYC14K0nyfzw/0ECCeKXmSzcb0PRAd7seFNVxyYssq/92bjldq+EyQ3R9+HK9q9AP+X38G6tUfA1qRlbyf1s2b07YAmty5fVdMeYS1YnOoG+OycWBIVUSUFA7Nq+vIgwMA1DLp2y47F/gUPo+TBlCfVjGl8iYBvezLiXPlBrtiHBdWGzXeCZBPGlWB8zPk8A9e4HQLnQYMkxy4K3goEOjVpFe9VkK2KyLKjdkScQSM1pLZX1XMjR8BVgun6aKzY7+XbjxvfU+mMVmf0rUL9VL6Y+dJ0oXSW33PY1p6vBMm0Rw8mTfP1JdDnyct3CIW2xvQsA6emraJMq5hyVDN+wWcQVbs91b4r1TI45RUhOz3Rza+qFPviQ9jqxVSQumvi0YOItK8Q8N6A/KwG809ThdLlAdl/yayvBMmaxvJpcPDmRQCnTtXEJptomwMWsmyoJIVa91fXK0m9GnCrvbXYP28TNrs20wDFXDx2DhPLjRpf2kEzwyKNLn11qfjTXTZiSz2m5BtBRs8wr6xH0EH5kC+1gvm0iQ48rZnTlqDqO0WVFK8LKgZpV35UZeaVkZjd17EO/w7SV9C2ZWZ0iY1jKgIfIBdHeRnYQsA9guieNi16024bXvxb0DEH8oiVMfVLCBTo82DgwDB/IlUo/WzMz+O7zIpH9coZNNIsU+W4rdsQBUDdRHx3ke3+vQP4EOk2MD/1cu2zdhWRygHEOADMbwZI/tC8DlT9wTEADIG5AKIhBoY0ovs35ot3HwKU/YzDiS3f7iBZ03i6mZPXaoHCTOemC8UfykVkqpwBrdqN6WVp97VsOPk7M8qaRt0E/k2lbPcHtQvjJKZQ9pUI+EKQln+8YpzHBEMDdzHoTQFeKHa12y1zf1E3+vd5cvPfA/QVmvYBAZ8IYlzXwmed5Z1PqY+gS7yHGXSNxtxXiuj98wZffMalnVCtAQj4QxDTWM3Ang2IvyldjrxY0jIQ90NE+1KFLRubMtAwqJoI+EKQrGn8S7nVcc2QWlZgMxOWyzuFXY7277Vxa6u1CWhZ4IMM3DNBRk+XSYLMxPFvAlYI5n6ORvo6NwzL8/LhmEYIeCeIaXRWgCemESZTToVQ7Zp6OxP3E2v9Sau4fqbMfSbO0zNBWrOpiuOlfg6MO0mTZ0K0/j2GiuscWwgVWhIBzwR5crc2s1QW0/DRgp4l4nvl4xNFtH4/zoK05BUyw4P2TBB5Ei5nGg370unr+hFtkt8owNynadQfVN0tX2MOjQWKgGeCyOgypv4MBfuBLUgQ/gGgn4n6o8x9HZY9Y96nggR1utj2iSDGwwTMbyFQngehH0x9ENyfGrIfa6HYw1DriIAvBMma+sUANaTCoBusGPyTtFX6lBvdUGdmIeALQZ5o1w+IaPTHFoLu2FZpcNNCmE7LUH0hiEQmaxp/AeBryZUgEGdgXZtm7zVnELITVDhCBKZEwDeCNHcpyv9gUI9zzOE1N30Q8I0gAwl9foXpzwAizQwPgxekW7wtczPjO91i840gI49Z+o8AOrtZQWpERfZmxSKMSw0BXwmypj3WoWn8p6DPbKtN7ZVS4d3DLXIzV89XglTvInHjQhBeUeqz4RAzvp8q2LL9QjhCBJQR8J0gD+0PfYdNsd8AfKByFMEL3p2y7IXBuwk9TDcEfCeIBGgwsd3Ow1xeDeD1jQaMwX8jQe8Nv5Y3eiVa038gBKk+asnS/hoebQJYwo+CTbAIrRpCYASRgMjuq8Sa7xW3HYAdksMBWKHoKxEIlCDS3YBpdJaBv1L92waH5AiveM8IBE6QMZII4Ma6VD6R58OZL3DSo9AziqGBaYtAXQjyH5LQ2RxgY0oGLkhb9vnTdrXCidUdgboRZGxmGVPfX4O2xE+iyC/kAqI7TCGp+/Uz7R3WnSDbEoWIDmOm9xD4IBdIy1OMt4XEcIFcqKKMQMMIsm2EAzthx4phLGTi+cTUDkD+i4/+L8vsjPxjfp6J7oMQ/eE7hvIah4IeEPh/zJbdm0Qg7fYAAAAASUVORK5CYII=;" parent="1" vertex="1">
          <mxGeometry x="110" y="35" width="40" height="40" as="geometry" />
        </mxCell>
        <mxCell id="MhH44BmzcimzEkGrFkP5-9" value="$$\text{Global model }\theta^{(t)}$$" style="text;html=1;strokeColor=none;fillColor=none;align=center;verticalAlign=middle;whiteSpace=wrap;rounded=0;" parent="1" vertex="1">
          <mxGeometry x="190" y="75" width="100" height="20" as="geometry" />
        </mxCell>
        <mxCell id="MhH44BmzcimzEkGrFkP5-10" value="$$\text{Global policy }\pi^{(t)}$$" style="text;html=1;strokeColor=none;fillColor=none;align=center;verticalAlign=middle;whiteSpace=wrap;rounded=0;" parent="1" vertex="1">
          <mxGeometry x="70" y="75" width="110" height="20" as="geometry" />
        </mxCell>
        <mxCell id="MhH44BmzcimzEkGrFkP5-12" value="Server" style="text;html=1;strokeColor=none;fillColor=none;align=center;verticalAlign=middle;whiteSpace=wrap;rounded=0;" parent="1" vertex="1">
          <mxGeometry x="157.5" y="30" width="45" height="15" as="geometry" />
        </mxCell>
        <mxCell id="MhH44BmzcimzEkGrFkP5-13" value="" style="endArrow=classic;html=1;rounded=0;exitX=0.124;exitY=1.001;exitDx=0;exitDy=0;entryX=0.5;entryY=0;entryDx=0;entryDy=0;fillColor=#f0a30a;strokeColor=#000000;exitPerimeter=0;" parent="1" source="MhH44BmzcimzEkGrFkP5-6" target="MhH44BmzcimzEkGrFkP5-1" edge="1">
          <mxGeometry width="50" height="50" relative="1" as="geometry">
            <mxPoint x="60" y="110" as="sourcePoint" />
            <mxPoint x="60" y="150" as="targetPoint" />
          </mxGeometry>
        </mxCell>
        <mxCell id="MhH44BmzcimzEkGrFkP5-14" value="" style="endArrow=classic;html=1;rounded=0;exitX=0.25;exitY=1;exitDx=0;exitDy=0;entryX=0.25;entryY=0;entryDx=0;entryDy=0;fillColor=#f0a30a;strokeColor=#000000;" parent="1" source="MhH44BmzcimzEkGrFkP5-6" target="MhH44BmzcimzEkGrFkP5-3" edge="1">
          <mxGeometry width="50" height="50" relative="1" as="geometry">
            <mxPoint x="120" y="100" as="sourcePoint" />
            <mxPoint x="120" y="140" as="targetPoint" />
          </mxGeometry>
        </mxCell>
        <mxCell id="MhH44BmzcimzEkGrFkP5-15" value="" style="endArrow=classic;html=1;rounded=0;entryX=0.25;entryY=0;entryDx=0;entryDy=0;fillColor=#f0a30a;strokeColor=#000000;exitX=0.6;exitY=1.25;exitDx=0;exitDy=0;exitPerimeter=0;" parent="1" source="MhH44BmzcimzEkGrFkP5-9" target="MhH44BmzcimzEkGrFkP5-5" edge="1">
          <mxGeometry width="50" height="50" relative="1" as="geometry">
            <mxPoint x="250" y="110" as="sourcePoint" />
            <mxPoint x="300" y="150" as="targetPoint" />
          </mxGeometry>
        </mxCell>
        <mxCell id="MhH44BmzcimzEkGrFkP5-16" value="" style="endArrow=classic;html=1;rounded=0;exitX=0.626;exitY=1.008;exitDx=0;exitDy=0;entryX=0.25;entryY=0;entryDx=0;entryDy=0;fillColor=#f0a30a;strokeColor=#000000;exitPerimeter=0;" parent="1" source="MhH44BmzcimzEkGrFkP5-6" target="MhH44BmzcimzEkGrFkP5-4" edge="1">
          <mxGeometry width="50" height="50" relative="1" as="geometry">
            <mxPoint x="220" y="140" as="sourcePoint" />
            <mxPoint x="220" y="180" as="targetPoint" />
          </mxGeometry>
        </mxCell>
        <mxCell id="MhH44BmzcimzEkGrFkP5-17" value="$$\text{Broadcast }\theta^{(t)},$$" style="text;html=1;strokeColor=none;fillColor=none;align=center;verticalAlign=middle;whiteSpace=wrap;rounded=0;" parent="1" vertex="1">
          <mxGeometry x="-10" y="102.5" width="90" height="20" as="geometry" />
        </mxCell>
        <mxCell id="MhH44BmzcimzEkGrFkP5-18" value="$$\pi^{(t)}\text{ or }\lambda_i\sim\pi^{(t)}$$" style="text;html=1;strokeColor=none;fillColor=none;align=center;verticalAlign=middle;whiteSpace=wrap;rounded=0;" parent="1" vertex="1">
          <mxGeometry x="-20" y="122.5" width="110" height="20" as="geometry" />
        </mxCell>
        <mxCell id="MhH44BmzcimzEkGrFkP5-20" value="$$\text{Client}_1$$" style="text;html=1;strokeColor=none;fillColor=none;align=center;verticalAlign=middle;whiteSpace=wrap;rounded=0;" parent="1" vertex="1">
          <mxGeometry x="20" y="147.5" width="50" height="20" as="geometry" />
        </mxCell>
        <mxCell id="MhH44BmzcimzEkGrFkP5-22" value="$$\cdots$$" style="text;html=1;strokeColor=none;fillColor=none;align=center;verticalAlign=middle;whiteSpace=wrap;rounded=0;" parent="1" vertex="1">
          <mxGeometry x="155" y="150" width="50" height="20" as="geometry" />
        </mxCell>
        <mxCell id="MhH44BmzcimzEkGrFkP5-24" value="$$\text{Client}_N$$" style="text;html=1;strokeColor=none;fillColor=none;align=center;verticalAlign=middle;whiteSpace=wrap;rounded=0;" parent="1" vertex="1">
          <mxGeometry x="280" y="147.5" width="50" height="20" as="geometry" />
        </mxCell>
        <mxCell id="MhH44BmzcimzEkGrFkP5-25" value="" style="endArrow=classic;html=1;rounded=0;strokeColor=#000000;fillColor=#ffcd28;gradientColor=#ffa500;entryX=0.167;entryY=1.004;entryDx=0;entryDy=0;entryPerimeter=0;exitX=0.75;exitY=0;exitDx=0;exitDy=0;" parent="1" source="MhH44BmzcimzEkGrFkP5-1" target="MhH44BmzcimzEkGrFkP5-6" edge="1">
          <mxGeometry width="50" height="50" relative="1" as="geometry">
            <mxPoint x="50" y="160" as="sourcePoint" />
            <mxPoint x="100" y="110" as="targetPoint" />
          </mxGeometry>
        </mxCell>
        <mxCell id="MhH44BmzcimzEkGrFkP5-53" value="" style="rounded=0;whiteSpace=wrap;html=1;dashed=1;fillColor=#dae8fc;strokeColor=#6c8ebf;" parent="1" vertex="1">
          <mxGeometry x="430" y="120" width="300" height="30" as="geometry" />
        </mxCell>
        <mxCell id="MhH44BmzcimzEkGrFkP5-26" value="" style="endArrow=classic;html=1;rounded=0;strokeColor=#000000;fillColor=#ffcd28;gradientColor=#ffa500;exitX=0.5;exitY=0;exitDx=0;exitDy=0;entryX=0.545;entryY=1.25;entryDx=0;entryDy=0;entryPerimeter=0;" parent="1" source="MhH44BmzcimzEkGrFkP5-3" target="MhH44BmzcimzEkGrFkP5-10" edge="1">
          <mxGeometry width="50" height="50" relative="1" as="geometry">
            <mxPoint x="110" y="140" as="sourcePoint" />
            <mxPoint x="130" y="110" as="targetPoint" />
          </mxGeometry>
        </mxCell>
        <mxCell id="MhH44BmzcimzEkGrFkP5-28" value="" style="endArrow=classic;html=1;rounded=0;strokeColor=#000000;fillColor=#ffcd28;gradientColor=#ffa500;entryX=0.667;entryY=1.008;entryDx=0;entryDy=0;entryPerimeter=0;exitX=0.5;exitY=0;exitDx=0;exitDy=0;" parent="1" source="MhH44BmzcimzEkGrFkP5-4" target="MhH44BmzcimzEkGrFkP5-6" edge="1">
          <mxGeometry width="50" height="50" relative="1" as="geometry">
            <mxPoint x="260.56" y="119.96000000000001" as="sourcePoint" />
            <mxPoint x="329.44" y="80.04000000000005" as="targetPoint" />
          </mxGeometry>
        </mxCell>
        <mxCell id="MhH44BmzcimzEkGrFkP5-29" value="" style="endArrow=classic;html=1;rounded=0;strokeColor=#000000;fillColor=#ffcd28;gradientColor=#ffa500;entryX=0.833;entryY=1.009;entryDx=0;entryDy=0;entryPerimeter=0;exitX=0.5;exitY=0;exitDx=0;exitDy=0;" parent="1" source="MhH44BmzcimzEkGrFkP5-5" target="MhH44BmzcimzEkGrFkP5-6" edge="1">
          <mxGeometry width="50" height="50" relative="1" as="geometry">
            <mxPoint x="305.56" y="110" as="sourcePoint" />
            <mxPoint x="374.44" y="70.08000000000004" as="targetPoint" />
          </mxGeometry>
        </mxCell>
        <mxCell id="MhH44BmzcimzEkGrFkP5-30" value="$$\text{Send }\theta^{(t+1)}_i,$$" style="text;html=1;strokeColor=none;fillColor=none;align=center;verticalAlign=middle;whiteSpace=wrap;rounded=0;" parent="1" vertex="1">
          <mxGeometry x="270" y="105" width="80" height="15" as="geometry" />
        </mxCell>
        <mxCell id="MhH44BmzcimzEkGrFkP5-33" value="$$\pi^{(t+1)}_i\text{ or }f_i(\lambda_i)$$" style="text;html=1;strokeColor=none;fillColor=none;align=center;verticalAlign=middle;whiteSpace=wrap;rounded=0;" parent="1" vertex="1">
          <mxGeometry x="270" y="125" width="90" height="15" as="geometry" />
        </mxCell>
        <mxCell id="MhH44BmzcimzEkGrFkP5-34" value="" style="shape=curlyBracket;whiteSpace=wrap;html=1;rounded=1;fontColor=#B5739D;" parent="1" vertex="1">
          <mxGeometry x="300" y="30" width="20" height="50" as="geometry" />
        </mxCell>
        <mxCell id="MhH44BmzcimzEkGrFkP5-35" value="&lt;font color=&quot;#000000&quot;&gt;$$\theta^{(t+1)}=\text{aggr}_{\text{m}}(\theta^{(t+1)}_1,\ldots,\theta^{(t+1)}_N)$$&lt;/font&gt;" style="text;html=1;strokeColor=none;fillColor=none;align=center;verticalAlign=middle;whiteSpace=wrap;rounded=0;fontColor=#B5739D;" parent="1" vertex="1">
          <mxGeometry x="320" y="30" width="200" height="25" as="geometry" />
        </mxCell>
        <mxCell id="MhH44BmzcimzEkGrFkP5-36" value="&lt;font color=&quot;#000000&quot;&gt;$$\pi^{(t+1)}=\text{aggr}_{\text{p}}(\pi^{(t+1)}_1,\ldots,\pi^{(t+1)}_N)\text{ or aggr}_{\text{p}}((\lambda_1,f_1(\lambda_1)),\dots,(\lambda_N,f_N(\lambda_N)))$$&lt;/font&gt;" style="text;html=1;strokeColor=none;fillColor=none;align=center;verticalAlign=middle;whiteSpace=wrap;rounded=0;fontColor=#B5739D;" parent="1" vertex="1">
          <mxGeometry x="320" y="55" width="460" height="25" as="geometry" />
        </mxCell>
        <mxCell id="MhH44BmzcimzEkGrFkP5-38" value="" style="shape=curlyBracket;whiteSpace=wrap;html=1;rounded=1;fontColor=#B5739D;" parent="1" vertex="1">
          <mxGeometry x="380" y="90" width="20" height="90" as="geometry" />
        </mxCell>
        <mxCell id="MhH44BmzcimzEkGrFkP5-40" value="$$\theta^{(t)}_i =\text{sync}_{\text{m}}(\theta^{(t)}),$$" style="text;html=1;strokeColor=none;fillColor=none;align=center;verticalAlign=middle;whiteSpace=wrap;rounded=0;fontColor=#000000;" parent="1" vertex="1">
          <mxGeometry x="396.25" y="90" width="120" height="20" as="geometry" />
        </mxCell>
        <mxCell id="MhH44BmzcimzEkGrFkP5-43" value="$$[\pi^{(t)}_i =\text{sync}_{\text{p}}(\pi^{(t)})\text{ and }\lambda_i \sim\pi^{(t)}_i ]$$" style="text;html=1;strokeColor=none;fillColor=none;align=center;verticalAlign=middle;whiteSpace=wrap;rounded=0;fontColor=#000000;" parent="1" vertex="1">
          <mxGeometry x="516.25" y="90" width="217.5" height="20" as="geometry" />
        </mxCell>
        <mxCell id="MhH44BmzcimzEkGrFkP5-44" value="$$\theta^{(t)}_i$$" style="text;html=1;strokeColor=none;fillColor=none;align=center;verticalAlign=middle;whiteSpace=wrap;rounded=0;fontColor=#000000;" parent="1" vertex="1">
          <mxGeometry x="440" y="124.25" width="20" height="21.5" as="geometry" />
        </mxCell>
        <mxCell id="MhH44BmzcimzEkGrFkP5-45" value="$$\text{Local update}_{\lambda_i}(\cdot)$$" style="rounded=1;whiteSpace=wrap;html=1;fontColor=#000000;" parent="1" vertex="1">
          <mxGeometry x="482.5" y="122.5" width="110" height="25" as="geometry" />
        </mxCell>
        <mxCell id="MhH44BmzcimzEkGrFkP5-46" value="" style="endArrow=classic;html=1;rounded=0;fontColor=#000000;strokeColor=#000000;entryX=0;entryY=0.5;entryDx=0;entryDy=0;exitX=1;exitY=0.5;exitDx=0;exitDy=0;" parent="1" source="MhH44BmzcimzEkGrFkP5-44" target="MhH44BmzcimzEkGrFkP5-45" edge="1">
          <mxGeometry width="50" height="50" relative="1" as="geometry">
            <mxPoint x="442.5" y="254.5" as="sourcePoint" />
            <mxPoint x="492.5" y="204.5" as="targetPoint" />
          </mxGeometry>
        </mxCell>
        <mxCell id="MhH44BmzcimzEkGrFkP5-47" value="$$\theta^{(t+1)}_i$$" style="text;html=1;strokeColor=none;fillColor=none;align=center;verticalAlign=middle;whiteSpace=wrap;rounded=0;fontColor=#000000;" parent="1" vertex="1">
          <mxGeometry x="612.5" y="125" width="40" height="20" as="geometry" />
        </mxCell>
        <mxCell id="MhH44BmzcimzEkGrFkP5-48" value="" style="endArrow=classic;html=1;rounded=0;fontColor=#000000;strokeColor=#000000;entryX=0;entryY=0.5;entryDx=0;entryDy=0;exitX=1;exitY=0.5;exitDx=0;exitDy=0;" parent="1" source="MhH44BmzcimzEkGrFkP5-45" target="MhH44BmzcimzEkGrFkP5-47" edge="1">
          <mxGeometry width="50" height="50" relative="1" as="geometry">
            <mxPoint x="482.5" y="264.5" as="sourcePoint" />
            <mxPoint x="532.5" y="214.5" as="targetPoint" />
          </mxGeometry>
        </mxCell>
        <mxCell id="MhH44BmzcimzEkGrFkP5-50" value="$$\text{eval}(\cdot)$$" style="rounded=1;whiteSpace=wrap;html=1;fontColor=#000000;" parent="1" vertex="1">
          <mxGeometry x="670" y="122.5" width="47.5" height="25" as="geometry" />
        </mxCell>
        <mxCell id="MhH44BmzcimzEkGrFkP5-51" value="" style="endArrow=classic;html=1;rounded=0;fontColor=#000000;strokeColor=#000000;entryX=0;entryY=0.5;entryDx=0;entryDy=0;exitX=1;exitY=0.5;exitDx=0;exitDy=0;" parent="1" source="MhH44BmzcimzEkGrFkP5-47" target="MhH44BmzcimzEkGrFkP5-50" edge="1">
          <mxGeometry width="50" height="50" relative="1" as="geometry">
            <mxPoint x="652.5" y="176" as="sourcePoint" />
            <mxPoint x="612.5" y="96" as="targetPoint" />
          </mxGeometry>
        </mxCell>
        <mxCell id="MhH44BmzcimzEkGrFkP5-52" value="$$f_{i}(\lambda_i)$$" style="text;html=1;strokeColor=none;fillColor=none;align=center;verticalAlign=middle;whiteSpace=wrap;rounded=0;fontColor=#000000;" parent="1" vertex="1">
          <mxGeometry x="740" y="122.5" width="40" height="24" as="geometry" />
        </mxCell>
        <mxCell id="MhH44BmzcimzEkGrFkP5-54" value="$$\lambda_i$$" style="text;html=1;strokeColor=none;fillColor=none;align=center;verticalAlign=middle;whiteSpace=wrap;rounded=0;fontColor=#000000;" parent="1" vertex="1">
          <mxGeometry x="396.25" y="125" width="20" height="20" as="geometry" />
        </mxCell>
        <mxCell id="MhH44BmzcimzEkGrFkP5-55" value="" style="endArrow=classic;html=1;rounded=0;fontColor=#000000;strokeColor=#000000;entryX=0;entryY=0.5;entryDx=0;entryDy=0;exitX=1;exitY=0.5;exitDx=0;exitDy=0;" parent="1" source="MhH44BmzcimzEkGrFkP5-54" target="MhH44BmzcimzEkGrFkP5-53" edge="1">
          <mxGeometry width="50" height="50" relative="1" as="geometry">
            <mxPoint x="420" y="135" as="sourcePoint" />
            <mxPoint x="620" y="160" as="targetPoint" />
          </mxGeometry>
        </mxCell>
        <mxCell id="MhH44BmzcimzEkGrFkP5-56" value="" style="endArrow=classic;html=1;rounded=0;fontColor=#000000;strokeColor=#000000;exitX=1;exitY=0.5;exitDx=0;exitDy=0;entryX=0;entryY=0.5;entryDx=0;entryDy=0;" parent="1" source="MhH44BmzcimzEkGrFkP5-50" target="MhH44BmzcimzEkGrFkP5-52" edge="1">
          <mxGeometry width="50" height="50" relative="1" as="geometry">
            <mxPoint x="590" y="200" as="sourcePoint" />
            <mxPoint x="730" y="160" as="targetPoint" />
          </mxGeometry>
        </mxCell>
        <mxCell id="MhH44BmzcimzEkGrFkP5-57" value="$$[\pi^{(t+1)}_i =\text{update}_{\text{p}}(\lambda_i, f_i(\lambda_i)]$$" style="text;html=1;strokeColor=none;fillColor=none;align=center;verticalAlign=middle;whiteSpace=wrap;rounded=0;fontColor=#000000;" parent="1" vertex="1">
          <mxGeometry x="400" y="160" width="180" height="20" as="geometry" />
        </mxCell>
      </root>
    </mxGraphModel>
  </diagram>
</mxfile>
